<mxfile host="app.diagrams.net" modified="2023-05-12T16:00:39.741Z" agent="Mozilla/5.0 (Windows NT 10.0; Win64; x64) AppleWebKit/537.36 (KHTML, like Gecko) Chrome/113.0.0.0 Safari/537.36 Edg/113.0.1774.35" etag="tP0fqdTlTMgcNosFnCeu" version="21.2.9" type="github" pages="2">
  <diagram id="oTm0tfUULPfzJskAt33G" name="Case">
    <mxGraphModel dx="1674" dy="764" grid="1" gridSize="10" guides="1" tooltips="1" connect="1" arrows="1" fold="1" page="1" pageScale="1" pageWidth="827" pageHeight="1169" math="0" shadow="0">
      <root>
        <mxCell id="kQTfouu3JKNXjfHW2Bjd-0" />
        <mxCell id="kQTfouu3JKNXjfHW2Bjd-1" parent="kQTfouu3JKNXjfHW2Bjd-0" />
        <mxCell id="kQTfouu3JKNXjfHW2Bjd-2" value="" style="shape=image;verticalLabelPosition=bottom;labelBackgroundColor=#ffffff;verticalAlign=top;aspect=fixed;imageAspect=0;image=data:image/png,iVBORw0KGgoAAAANSUhEUgAAAVkAAAIyCAYAAABhKbnfAAAgAElEQVR4Aey913OcSXru+ZSvgit4T9B70yTbjOlpzUiaGXkpjo4i9igk7aWkK11txMbe6Y9RrIldSSOdc8a7np7p6elpQzab3ht47wrla+P3fkiwiAZIADQFkPkxwHLfl+bJzCeffPPNzFClUqnIXx4Bj4BHwCPwXBAIP5dQfaAeAY+AR8AjYAh4kvUVwSPgEfAIPEcEPMk+R3B90B4Bj4BHwJOsrwMeAY+AR+A5IhDdTNjlcvmR2/2c2SNw+A8eAY+ApFAo9AgO4fCrreU2RLKOXCFV9weKjmTd6yPI+g8eAY/AK4eAI1he3ftqEF5Fwn0syTpCda+QrXvPqyNfByLf+csj4BF4tRBYTaaOYN0rvODewxmvGtGuS7KryRRwSqWSESvv3R/VqZpcq9+/WlXN59Yj8OohsB7BQqT8xmskErFX3vMHdzjSfRUQeyLJOnKFYIvFov3x3hGuI2PA8gT7KlQZn0ePwBcRcGTryNMRK6/RaNSIlvfue8iWyz33xRBfnm/WJFlHnI5gHbkuLS2pUCjYXzXRAocn2JenUviceAS2ioBTq45Mk8mkYrGYES2v8ASkywXBcv/LTrTrkiwgAIgjWsj1zp07Onv27Fbx39BzOw1w1yNvKHM1vCmfz9cw9pc3asjEX2sjkMlk9OGHH+rw4cOKx+PGJRAtlyNh3r/sRPsFknWKlFdHsihZGilEy2tjY+PaqPpvty0CTj1s2wT6hL10CECkJ06c0Pnz541oGf1W8wt1ElHlvttpAmujBbamA1s1wTqzAATLlcvlrEfaaAT+Po+AR+DVRACS7ezs1GuvvaYrV64Ic2M2mzUOgU8Qb25uhxGzI9uXDa01SZZMOqLlFTAcyfLby9rjvGyF6/PjEaglAvAEahWiPXPmjK5fv75CtG5kXE20cA1k+7Jd65IsGXWZJuMvY+ZftsL0+fEIbDcEVhPttWvXVoiWUbFTtPALqpYL3nmZrieSLBnmDwC8Xe9lKnqfF4/Ai0EAomVyC0XLxPmTFC2E+zIR7WNJ1hWBI1r32b96BDwCHoHNIADJOqJ9/fXXdePGDbPPYqN1pgM3/+NGzi/L6HldknU9iXvdDKD+Xo+AR8AjsBoBR7QdHR2maCHatSbDnJJ9WcTduiS7GiBPtqsR8Z89Ah6BzSKwUaJF1cI5TtVuNp7tdP8X/GTXStxmCPbcuXO6e/euDQ3opYaGhtTX16fjx4/r5s2bGhwc1J/+6Z+qq6vLVoIwVOC+qakp3b59214ZQmDHqaurU3Nzsw4dOmT2HOfIvFYa/XfbEwEmNm7dumV/2OSYTZ6dnTX/yZaWFi0sLFhdWVxctMUuOLA3NTVZfaGhUSeoU+3t7fr2t78tVhBRN9w1Pz+vixcvWr3i/iNHjlh9o87+/Oc/N3chZrZ5njr24x//WKdOnTIlVV9f/0hYLkz/+ngEaJ+0a8oV1yzKC3/YgwcPbsiHHqLlQtFiOvjkk0+0b9++NSN1pEx5Vpf7mjdv0y83RLKbSTug//KXv1Rra6v1RJcvX9bRo0fV1tamf/mXf1FDQ4O++c1vWmODNPGlA0AaI7ON4+PjVoCASyFwD72ZK5jNpMXfW3sEKFfKlAZJWUKw1Ak62VQqZcRHuU9PTxuhQroQ4t69e63cR0ZG9NFHH6m/v19f//rXbeUQdYaLekN4ly5d0vDwsE3MukZJw2c4Ojo6auHs37/f7v3000+t46ZOEr8Lq/ZI7YwU0JHNzc0Z3ogmOkBWc9FJIoogSz4/6XLtmbKmLKgTaxFt9WQ7z+xEot2wueBJoLnf6eVQFzScalBoEO7iHndRyVEUPT09pl5QrjQMGiYAHzt2zAjbNwaH2M56hVipByhUiJaGOTk5aZ0sJEd5Q7ATExNWB+hYXQOkXkDGNF5X/tX1iBEQz1JfaPyoXMh2bGzM6g4dO2Exmw3hzszMWMdNuC/LpMqLrg3gTEdI2e3Zs8fKx41WKEPeb/SibCjXXbt2GdFSP+AG/la7d1Huzla70fC3y33PXMlClgzZULL0bpDk7t277TM9Fg0GNesaDUDQEPlLJBLq7u421QLBol4wNWykZ9wugPp0PIoA5Uj5Ub7UBxoPZMj3fMdvmBD4HvMBjdg1MtQo31Ev1lIwDFkxJ9D4uJfl3hAs6pYwqWd8TwOFiImP8CCIndpgH0X3xX+CGCk/FCivtHMuOkOwrm7XG0kd5eqIlvcoWkYxXKvL3HW+vK7+bSNx1eqeZ06ybAaBOnFDsfv37xtRQp7f+ta3rKKjMGhkqy8aHLYdGhWNgUbDe3/tbASoC9hjaUyQKX+oSZQo6pIypoFCwqgkiBZbPUToGrUjWte4IFFIFuVKZ4wC5h7ChlRRznzu7e21ugj58h3kQEe/0xrqdqkBtFvaLx0hONOuUaIIKf7AfLMXZUrdoBy5HNHyPXG4y3GGqwPu1f2+XV+/yHRPmVKUrBumAQIFwEXFhkCp3DQwXte6aAQQLM+ud89az/nvticClCOdJ0SLLY+ydxMkkCzfUV9QQnzmPgiUDhblyWeUDc/RyFzDgoh5n06nhb0VEncX9/E74aK0uAdVixmL+6hjpMmF5Z7zrxtDACJ1ipVJRbCknW+FYF2MlMVqosVGW02y3OvqAPfvlI7ymZMsQK8HNpX9SRfguR7rSff633cGAhAkhIc6hfQgWTpdSJUGCsHSsUKuKE/u435IFrLFG8CZFqo7XlQUv0PCvEKshIfK4j4ImroIwVL3ULLEi2p2anZnILj9UkkbBceNtOmNpr6aaHlfrWhXh+HqgSPb1b9vp8/PnGS3U+Z8WrYHAihHCA9XPEjQ2e54z/e80lggUkxNmAn4jovfUarud5cjyJPhJcTsCJOGBznzvLv4DoVEeHzPewjCKTF3n3/dPAKUybO+CJOyYS6GC6Jlgm21onXlR/ny2/NIy7PKmyfZZ4WkD2ddBCA4R5rVN0F2q0ctqz/TiFCia10Q8OprrXi4Z617Vz/rP28PBNYj2rVSx73Odr9didaT7Fol57/zCHgEaooAhEmHi6Ll/fvvv6/Tp09/IU38RkfMVf3+CzfW8Iu1Z59qmCAftUfAI+ARcAhAtNjpv/rVr5o3CXZ85+KHTy7mIpQsf5gNVpsVXDi1fPVKtpbo+7g9Ah6BJyKA/RWi5WIxCx5M7nKkChmjZCHb7aZoPcm60vKvHgGPwLZEANJ0RMt7Vu9VEy3fuQvTwXabDPMk60rHv3oEPALbFgFHtLjtca0mWqdondcB9/CMs9fWMmOeZGuJvo/bI+AR2DACkCZmAUe0mA7cexeI8y5x6tZ5Hrjfa/HqSbYWqPs4PQIegS0hUE20vIdoWcziLr5D1fK6XUwHnmRd6fhXj4BHYEcg4IjWketqonWmAxa3cHF/9at9eIH/eZJ9gWD7qDwCHoFng8BaRFu9fwWxcI+z0TpV6wj32aRiY6F4kt0YTv4uj4BHYJsh4IgWuyzvUbTsxlZ9YaOtJlbev+jJME+y1SXi33sEPAI7CgFIE7XqTAfsdeD2PSAjjmCrFa2z2b6ojHqSfVFI+3g8Ah6B54LAaqLlCCy3eAFC5a/aPus8DhwBP5dEVQXqSbYKDP/WI+AR2JkIVBMt7x3RVqtWvufPmQuq3z/PXHuSfZ7o+rA9Ah6BF4YApIlZwE2AOaLle8jWXS/adLA9SLZSlNgDNPLkUy4dUP7VI+AR8AisRmAtonVLcPmNy5kO3LN879St++5ZvtaWZMtFqbAk5TMc8CzVt0nhwLftWWbSh+UR8Ai8OghUEy3vUbSrV4aBhiNdCLbarPCskaodyZbz0vyYSpM3pUpZobo2hZNNnmSfdQn78DwCryACjmidS9fVq1dXPBCqTQcs03UXzzwPRfswBhfT837FNlLMqLIwrvLUHZUmbiiUalYk1fy8Y/bhewQ8Aq8QAusRbTXJVsMBwTrPg+rvn/b9CybZsrQ0rcrcoEoTt1Qp5RXpOKhwU69CDR1SLPm0+fHPewQ8Ah6BFQSqiZb3mA6cT+3KTVVvnofp4MWS7NKMyuPXVLz/WyneoEjrboXbDypU3+4nvaoK2r/1CHgEnh0Cjmg50PPYsWN2OKPzQKiOhfvcxftnZTp4ccfPVEoqT99TcfC8inc/VLi+VZG+Mwo1dXuCdSXrXz0CHoHngoAjWo6eP3r0qMbGxuxI+lwuJ/7cUTYcK4/JAJPCemaFzSbwxZFsuajSxHUzEcRO/aUiXcekRKOkF5eEzYLj7/cIeAReHgQgWia6IFoULUSbyWTszLB8Pi/+qs8Mg2wd4T4NCi+Y4cISE1+lvELRJD4UT5N2/6xHwCPgEdgUAo5om5ubdfz4cX3/+983RcsBjZDsWop2UxGscfOLI9lwVJH2/QpF4ype/6mKDz6SMtNSpbRGsvxXHgGPgEfg+SDgiDadTuvv/u7v9IMf/GCFaDEdOEXrTAdO0W41NVsi2S3ZKkIRhdv2Krr7y4rufVvlhUmVRi9Jc8OmbLeaAf+cR8Aj4BHYLALVRPu3f/u3K0S7+rhxR7RwHmS7lWtLJLuViOyZRNqI1ia86lpVGr+h4v2PVJ64LhWzWw7WP+gR8Ah4BDaLwGqi/eEPf2iK9nFEuxWB+WJJFhSSzQp3Hla054TCsZQKt36h0oOPpaUpiWW2/vIIeAQ8Ai8IgdVE+6Mf/eixRLsV08GLJ1nAiyQUSvcp0veaIm37FIrXq4zZoJh7QdD6aDwCHgGPQICAI9qmpib9zd/8jf7t3/5txetgPfeuzZgOakOy5C3eoFDLgGKH/0BhI9o6KVy75PgK5xHwCLy6CFQT7T/+4z/qO9/5zmMV7WZstLVltXijQqz6ahlQqGWPhFuXvzwCHgGPQA0QcESL18E//MM/GNE6P9qnUbS1JVmADMelVJsUTbH5WA2g9VF6BDwCHoEAAYiWTb0h2r//+79fV9E62yyK9kmTYbUnWV+6HgGPgEdgGyFQTbSrTQfVCxY2SrSeZLdR4fqkeAQ8AtsDgWqixXTwH//xHys2Wke0zocWsn2covUkuz3K1KfCI+AR2GYIQLTsxOVMB45o3aowluBWq9n1ku9Jdj1k/PceAY/AK4/AWkTLYgWnZt2GMl7JvvJVxQPgEfAIbBWB1USLe5fzNlhtMkDZrr68kl2NiP/sEfAIeARWIeCIlgUL//RP/6T//M//tG0RUbKOaNfzMvAkuwpM/9Ej4BHwCKyFgCNaTAUnTpxY2RZx9cTXarL1JLsWmv47j4BHwCOwDgIsUOBabY9dzy7rSXYdIP3XHgGPgEfgcQg4zwKnZNe715Psesj47z0CHgGPwGMQcCS72jyw+hFPsqsR8Z89Ah4Bj8AGEHDmgerXtR7zJLsWKv47j4BHwCPwBASeRK7ucU+yDgn/6hHwCHgEtojA40wGnmS3CKp/zCPgEXi1EXgcsVYj40m2Gg3/3iPgEfAIPGMEPMk+Y0B9cB4Bj4BHoBoBT7LVaPj3HgGPgEfgGSMQfcbh7djgsK8UCwUVikVFo1HFYjGxjG4zF35zhUJe+XxB8XhciURiM4+veS/rokkbW67x5y+PgEdgZyFQc5KFmLhqTSBLSxktzM8rs5hRQ1Oj2AgiHt8ESVYqdsLl3OyM5ufmlG5uUUdnpx1lsdUqAemzhA+MIO26+vqtBuWf8wh4BGqEQE1Jlu3CpiYnFAqHVVdXr4aGhpqQbXZpSdevXtH01LSlIRKNqL6uXopvvFTyhYImxsc0PjaqcrmiimRquLm5WZHo1mDO5nKanpqyNdL1DQ2eZDdeHP5Oj8C2QWBrrf8ZJJ9hMARy4/o1O0Cxra1dvf39NsQuFYuCtCrlsg3Z6+rqFI5EtJRZtH0cGcajMlN1KUUiUVOg7FIOtRFuJBxWPJFQfX2DDf35LXg2v2ICMCKtb1C5VNLY2KguX7qk+blZ7T9w0BQo4czNztrwv1QqW7qSqZQpysXFBeVzeVOYyWTS4kVtTk1NanRkVIlkwtLBMJ+0R8tlLWWztmtPuVRUuVJRJBRWIplUQ2OjpamQz2txcdHuCYdD1ulklzLBd/mcwpHAVJBZXLRjMMCIPMQTSdXX19ekc3oG1cAH4RF46RGoGckuLS1pfHxMN69fN0Lq7uk1coI8FxbmNTszq3K5ZKTW19dvxHT3zi1ll7LCVNqYTquvb5eR2K0bNzQ/P6dQOGQ7lmNTTaebNbBnrxobGzQzM6OhwQemVLG1QmLJZEoDu/fY/Q/u3dPw0KAK+YJ9ptSxrQ4+eGDPsrUZR1D09PaqpbVN9+/d0/R0oDBj0ai6urqVSKbM1EDac9klLWUyFkZXV5cg6ZGRYc3Pzyufy0nLNta2jg7t23/ATAqz09O6d/+eMosLiscS6tvVL+Qw5F0slVZIG6U8PDwsyDaeiKu1rU179u43HF762uoz6BHYgQjUjGRRm9hhnU02Go0oGokK2+jI8LCpyPr6OqWb+xWNxUzhYZ9ElS7Mz+n+/fsql8rq6u7WvXt3TN21tLaaAsSWCUG2trUrFotqcnxcw4NDmpubNaKMRuJGtJBtMLnFBBfEmzQS5bupyUndv3/PJsMY/g8+uG8qmuOCH9y/Z+SLSm1vb1dmKaOlpazZT6PRmBHe3PysEX9vb58R5OjIsKnSRDxu9trpqUnrODo6Os0cMDExJr6z59N1QZ7zBSPqXA4VnF8+MD1kCj+fz5lyhrg7OrqUSqVWVPoOrIc+yR6BlxaBmk1XM/RGHUKMnV1d6uruUXNLiyJhzAIZI4zmllbt3bdfqbo6G5Knm9I2NIbohoceaGx0xIhsbm7Ohv0tLa06eOiQunt6LIxsdmllz0dKEGKHxFCzvBqxpiDWVrPFNjU3q7u7R6Vy2UwIE2NjZl+FfDFtoF4heswIEDmTY/27BtTc3GKqHJNEPB5TQ2NgW2b4DwkuLCwIu284FFJbe7sOHj6spnTaVDPEPzo6rMmJCcVicfX19Wn/wYPCfIJKzmWz9qwRbbFoFRFTSLq52cibdNExYd7wl0fAI7D9EKiZkkUtQnTxWFzRWOAyBXmGwjKCRSVir+QVZYuSvHXjuhExk0rFYslUbSFfFPbJeCqlep5paDSCrahsBAtpoxYxTxSLBd27e9cIub6hXrF4zFQltk3+MDMwBF9cWDBinJufs0kriLO1tVWQPPdga0V5YwvF7kvYEDqkSn74HIsl1N7eYco6k1k0EoSs8RDgGcwieDJwKBuv2GTpZAiTDgiVD0bEZSaDQsHCHxx6YBNs6XSLfY9JBYLlPn95BDwC2w+BmpEsUAQTVHEjTIiJITCEAcGg1iAsrtmZGY2PjWlmdkap+jrFooEPK8TC5Biv2GOZxcdTwYy2UjBxFg6LmXkUJCQ4OjJiJOzMEqhZSKyCR8AyUaF0cZniIi3JVJ36B3ab4oYoIxHMHCFTnvzOZ9LEJFqmsKhkXco6CLwl8C4oloKjg5m8s44k5MwUsg4i8MYNWfrm5ufVuLhoartYKq6kCXsx7mGYMVDubW0dRvimYCuYeT3JWoH5/zwC2wyBmpIsRIpJAOKYnZ0xMs1lc0ZEgaoN6AcCgXBRpExoYZeF7FCVEBekyF8IJbxMjKhkSBcCZRgPGaWSSZsoyjU22P0o4EI+Z2TpwsBboak5pc6ubrUPD6kp3WxmAYbuKGuG9LF4XKVieUVtMunV3tFhE3Z0FgzlG0ytxs3UEZ9PWHyEHShUBXk0BR218DFRjAwPmvpGwaJqySc4kE86DoiWfDenUbwN9p784XkQILXNapdPjkfAI6Cakiy21r7+XUaE2CZRrBBja3ubkomkUqk6KyJspgy5beIrH7hOMSvf29dvBNXb1xe4Q9XX27CfSSBm9QO/25DwN8XmiU8uBImZALLieUgesiUMJthwv0olU+ro6NDuvftsYcHk5IRaW9ssLdwD2ZdLFTNNYOqA0AmLM39GsRPPzdnwn/voIDABtHd2GslDjuFwxNLNxFtjY6PlFbXN5Bb26MH7941Y47GYkS3mA/KEGsdNrJAf18z0lOWZRQ/8Bnn7yyPgEdh+CNSUZBmSd3Yyu14whYiyhTBwr4K8UiwIkMweylAcu2c4xPA9ab8x4YQNFV8n1B4TURBefUOjdg3sNkXphv6QN+G3NDQoGomY3bOvf8B8bSG2vfsPGFFBsNyHGt2zd5+GHjywiS6IDhVLmukYMC80pZvsO+KGAFGVxDc5NWn3kRbixU7c37/L0gjhEj+eD3xPR4PdmUlATBf47OLmBZnXsQChrt7ImyW6qNvOzi4j7kIxr+bWFvOGIL8oen95BDwC2w+BUGWVMY+PkAWqjOEqEzNulhxb4KFDh4z0nqVyYihfKhUVCoVtBp7hsv2FGQQHA2EmeBguc2F35TOTR9zH87wGQ/Hg/sBZP+hDLD+FgkrlkpE09lvuhzTtYt+C5dl5G5oH3wY42HNlm+jCxYy4zQ66bJYgHHc53IL0YBIIJvT4DK6kD/VKnvjMH8+7MOwM92Jgh0Vto3jxqcXa6u4jLO5z4WFO4M9fHgGPwPNHgHY3OjqqCxcuqLu720aiNlmdTC4LK2cSfMgLNVWyDpKNEAWEk0iuTSbVxLgSZtVSVsgNdbruZZ4OX4RivefWIzW7f3nCrDqute53pFl9H/n4Ql4g4aqbNoJV1e3+rUfAI/AcEHDCaCNBe0PeRlDy93gEPAIegS0i4El2i8D5xzwCHgGPwEYQ2BTJfmEou5EY/D0eAY+AR+AVRmBTJPsK4+Sz7hHwCHgEtoSAJ9ktweYf8gh4BDwCG0PAk+zGcPJ3eQQ8Ah6BLSHwRb+lLQWzsx/C942dtdgbgc1aWFjAhjBPa4MmXHbgmpmetm0WWUjA7lvP4uyvtRDHTxf/YdzdcCfjwl8YP+eJyQnze2bxB4sgWDRB+njG9rdlSXKVz+9a4a/1HavUpqdnbJeyujp2Vms230HbQ2KtB6q+I352GWN3M/yxwcWlm2XE+B82NjZVPfHs3rJH8ODgA+WzOXPvw+eRhSEv08WiFlYIToyPq66+QS0tLF5pfa5ZpBxZWcl+0OFoRL09vbZ3yEq5PoPY8ROn/AJ/8bL5vrMBvttv5BlE8UyDiPzzP//zP68O0TU+51zPogQyxSsFxaqsrTTI1fFsl88cg3Pl8iW9/957+uV774o9Xzs6u6zRP00+CZeTH979+c/1ve9+11ayNTU1GnE8Tbhr4UbZsOnNUmbJtmqERImDJb7Xr13V97/3PX344Ye2Ko59FVhlRvrYa4FXFkngg7uZdFE/WHL88W8/1P/4z/+u8fHx5Y3EW43E10pn9Xc0yJHhIb3/y/f04W8+0NjYmB4MPrCd0lhajIcw56Q9ywbq4meZ9X/++79bvOzwxvaYzS3Nm8q/C2s7vtK5TkxM6De/fl///m//aju3QULkcy2/7WeVB3bM+9V77+nHP/iBrl29Yvs9N9p5ecsLf54yIuo5G/RzAsnI0JBtd8q+J9QRiPZ55s0lHdFCXWXZPsIAXBFkxE06aEPV7cgr2WW1Nz09rTt3buvKpUs6fPiIioX8yoosB+5mX+msUBPTk5Pi9AU2G2eLRjvy4JElBpsN+Yv3Dw8P6drlyxocGlJPb4/eeuvLRqisEGPvBk6hgFhYQszuXuxve/XqFd29E2x4/trp09q9Z48t4/1i6Ot/Q/jsmTs8PKjGpgZTpmxyvpGL/SjYGB3s5+fmlc3mTPmrUtahI0dtsV91Zd1ImBu9B4K/deumbaHJvhU0HNL9siye44gjOtChoSFd+Oy81WX2ZqZOPs+LMn3w4L4uXfrcNjGa+93fs9HUs4gT5Xrn9i1dvHhB5z/9VIsLbPzE6dIxHTl6VCdPvaZjJ05sug4/i7Q9LoxtQbJsV+jUMlWAtf3sSUB94Ht6CnoI3qOeUF0sqXUX+xq4I1q41/VmFAp/DGmpXCzbZdOVYFlteEVtESdhBGlgu8WHWwy6OHiFULjHwisHy2RRjOwz4OKsvp+tHNm5i6Honr17bAcwetsgX6SpbEtvSVuQ1oISiaQN31evUON32wpymaRtyW48iBcleu/Obb3/q1/q4sXPdfToMQ0M7LYtGEkPm9D09vaqLsUeCc2GJUfyfH7hM1Ohs3NzhneT7ZfLhuYROzKHOOmhyaO7wJ9RTdBby/DEtDIwMKAelhk2Na3EyzMOM/anYH2w7SGxXEb22/I+upQvZM05a+zDwFE/7GzG99VXgH/B8GITdMJ7xMxQfXPV+5V0FArBqRN2dHvOOkGWa5Ov6sulDQwoHzBhcyEa9FoX91AOwb3B7m92Rl2YbTCD3eL4zdK/vMkRu6dRj6vxdWFzL3FT1zgBBPML4dgIxWGyvByc8qBSQazUb+ojz1O/wJ0wLJxy2TZaYu9i8mtlu6zCXLzuNahv+WArTpags7GSHd30aHkQThB+weoEnTjpAQvuB0fS4q4gT5QfS+TZUzpiGFS3n6CsqGMPT08hDITB0NCgbl6/YWfygS/30pkwosI0x+b/yf7ttWHStiBZhrkMbaYmp1SulG0oyzCRApyZnrF9XKkQszPTQeHF43auFoXIPYDLBts0OrcpNoXKzl7YQ1FKFAb3Y+5wxMHOWkZmy/sIUGhUaKugrlYsv1JhGaagBhmecDJCNBa3/WI5kQFyIdzqC7LABrtn3z4j9p6eHtuJi7QQTi6XNfsoDY/jyDmyhv0Uenp6jZwxy3ChhmdnZ23zGCoU6SSfbW1tZkcEowf37+vu3Tu6d+eOkSkKlYpre9q2tOjQ4cO2GTnPEB/787KBOfcR7907t7V7YLeFx5E9mcySER7Eix3PNRji55wxC7uRjWmi6u7p1vETJ6yc2LSHDoCLeMzWPRMckw6GbGaDzZvNfNhpDbMMeLO5OvnlRIh0c1oHDx1W2/LOZ4RFnvPYfyenNDMzrfn5BTtaiE4MWzf2Wwh3rYvw2eGNesCevGz+4063oJmXs/gAACAASURBVP7wZxtELD8MSVDWnDoB8dPpYmJpbW8XZQ0W1Rf5AhfWtENg2JFJayGXt84LTKgfbAZP2qempuwgTjY6AgvCZFc4d5EeyIoyz+ayllb2zQAXznRjJzcu1Dj7iVCXuIiT+s1GQtQj8EedU1cht7m5GTsfjnSRR+oG58zRSVaTXBDurKYmJrWwuGC/UW9oL+DtLnCl7bFVKbvCUd/Zr5l6TR0nH9Cr/TGqywf1mDLkLDzEDnmhrQcdfNSe4zfsyJQndYT0OCHFfAPtyXavS6XsN9QtdfnSxc/11a+9o7b2tm2lZteulQ7F5/xKIVBII0ODeu8X79phgxw6CIB79u217QQ5Yuadr3/DjOeAODUxYXu8fv0bv2uVicrCBMb1a9essE+//rr6+/qtgn380W91/fpVLc4vWKWi0FBHkAgN4cyZs3Z8DArgcRfphLBRfuc++cTsnMRLJaGBcMLtyddesx3FTIkuB8ZzDEMhNA5fZLgGqaBKPjt/zg5v5GBGq1Rj45qemVIinlD/rl36wz/+U1P0VNybN67rypXLunL5iikAKjeEfuq112yLxds3b+r8uXN2rhkdFnj84t2f24QSipZDJ6n8EMvevfu1ODRodtprVy9b2nL5nA2/Ghsaxd644MNhjdeuXNaRo8ctb+wShjoZGx01GyrqkaN+2GoRkudMNbOhdnSa+mFCC9UBXpgysA2T7o6uLh08eMjSDuwQ041r1yxciCDoWCp2UGShWFBSQUeD8r59+6Yuff75cj6XTDGD3/ETJ83E09PX94gtjGKgYU9OTuncJx9bXQADSAXyoWOHiKovOjTMCFevXNbtWzfNjEE5QohHjhyzuHbt3m3q2T3HycXYo3/9q/c0NjpmdkgUOeYPyvLw4aP2HWm4e/euqS7qD3ZxbKRnz76hvfv3r4RJJ/75Z5/p1s0b1ibYY3nP3r1G0r/ze7+n/fsOmDjA5slcAnFDtoycKI9DR47oxMmThjdzmeCM2Lh86aLGx8bNdp/PF1SXSun4qdeEqYiOis6DTuXqlUu6eeOGRoaG7fw66hqYnXrtjI4eP27kzEhmcWHeRkLY/Nnik43rIUTKHdVJR+r23WAHPdJ77epV3bpxU9nckpUV25meOn1aR44cFQemUhcRDL/54NeWcMTE5ARn30Wt7TAiPHPmdSN+6gpYffpxWpPjE5qbnbN2Tnltp6umJAu50MB+8uMf6bcf/sZmxumxUZdUsMXFjKkmTpVt72jXJx9/ZEqNivn6G28aydKYB+8/sMK+e++udu0eEGSxlF3S5xfO67Pz563yQBA0BoYpNHbUGUduv/mlr9i5Xny33kWvTCW+dfOmPvnoIyNXGiO9PGEeOHDIhrWxs2ctLBcODZgDHJnUee/dn1tDo9dmXy1I9tOPf2uNgvDZK9eOLc/mTN1wQORbX/6KVUSw+fX7v9Lt27dNqdjRNZlFU2/07Ldv3zJipSMI0jprpwCn0wzdo6qfndUv33tPHObY09unfD6re/fumvE+OBqnbM9jHz0yPWUKBDJ792c/sQa6d1k5gDWNiQ7RtmyMRcVBkZcvX9IPv/9dnTj5mil3Tu+F1D/84AP99Cc/MlUIKdO5dE9N2YiDMJE4lD8dJDZjwqeR0jghIfJy7PgJSw9q5Uc/+L7ZzPFGYAtI1COKjckzyrVh1aQijQ3S++STj/XuT3+imzevm8pnz2Bs4+SFzeCt7EOyTgRV+MH77+ujD39jv5uXxLJiGxocNBLCC6F6Aom0ch4cE3iXPr+o/oFdtmMcJi86DrbuZJb/u//zvxsumIy4yN9n587Z6InhOLZh6gAd6o9/+AMjeTrNSCSm69evmdo7cuy4urt6DC/qBEICHBhaY8tG4XPyMsofsQIZkj/wJb67yTuGJzhDUGPjY0aEX/7KV22f5bu3b+mnP/yRpQFPFYjX2Xc5tQMTB+Yo6jZl8uMf/WDlxGnqJaqfDhFxYXErGOZPTozr3Z/9TBc/v2AYoNzBhno/MTFuXj2oWp5HkPz8pz81EmcEsLSYUWtHh9UvRkx9/f2GH/VlYqJgQo3w6LSoO9WmRNcWa/laM5IFYGYi3//Ve7pw/pwNs147c9qGi/Sy9HqcCotyQu02NjXakA/biysggKMhLWWzVrA0EP52795jioiNvRlu1DXUGxmO0uA++tAaCkMrSKCuvtF6ZirgeheVhV4aQoHcaSRU7KGhB6bUbt26YSqXfWY5iNFdVG56cIaIEBz5oHKWiiVTdkODQ+b+hCJE3bEV47UrV6xBMHxHXTQ0NlllZga8OZ3WiRMnjaypnBzIaPEtT3LQaKh4bBZ+9o03dPTYccNtemra3GpoaDRaiP7IUYZ2o3bEOqrj0KHDOnL0mCmWQBnNmkJC2WDvJi80OjorCAOFyLHkvKJomG0ln6SLoTajjg/e/6W9R6Ggrti+sbExbfGzSXmlVLZOEcLmOY5Dp9w5iRgCodGxDy8d3KVLF438GF6fPHXaCIm9dyG+q5cvqaW1xYhv//6DZkqhDCgjRgEQFmXVnG7W62++qVyO497vG64F5V1x2UjIRiuffmx5JM1s3g4hX70cqP7ffPC+9u3fb50Mw3IuTFwQLeYIVDvEdODgIR08fEikh44MFUknzZD7rS9/2Wy7KLZzn36i8+c+sToN0d6+ecPIGhwYmh87cdLIkhFNsA9xm5E/qvjSxQs2jN6zZ4/VeZQ5dnnyjNmAZ+0ophBn4hVtNHj69BlLn3UmH/zaRMsnH//WJo5oS4gSiBBF+dqZs5Z/zBbcQ8fLfs64AVLeeOOgTJPJhM6ceN1MX+T/o99+aIRuJFsqa2RkxDqMTz/+2OrRmbNnbT9lRMH1a9fNZEVnRz7IM+WGG9jE+JjVlUOHjxqeYIq5hA7b8cfFzz/X+U8/MRe1w0eOmAkN/LfTVTOSpVIODw2ZgoU4Dxw6rN//5h9oYPfugATzeSNhhoz0yhjJ6a2dMdyNQyhItmhlMizYq1VWCPSAb7zxlmYOHFIun7VhXzyR1JVLF40oIDoUFCr52LFjy7P+axcN9irCO3T4iB0BjgrAfszZXigx0n/n9m2zS60OgfTZXzhirzZlvrw/LJM6dBgMd9/+2jv2+0/rf6z3f/kLG8pCdsRL2OAF6TL8ZAa1vr7RCJEDIXcNDFilHhp8oPHRMesMvv6N3zNvAY4rZxjFsBGbNRhx//79BwxfVATKgwZ19vU31dHRLhQLVzWm9sXytos0NMIiX0G5BHv5MlzFdYjhOcPtmzdv6OTp03r77Xf0xltfspN8UYao7+bmtHU2J06eCvyIZ+c0NT1pRHXv3j0jzj179mp66ivm9XH96lUbOn/td75u5iOIe2RkyEYW3/m3f9U1K8u9dmwQQ0w6TRoxKp+OlQ7w7Btv6o//7C+sc2AkAZHh8sZFJ4Lpgu/p/CDXb//BH9kEInZR1NPPfvLjZTPLVWv8jmStTK0eMpkaNzUPmb/9ztft5OJfvfcLXTh/XogH7NeYeWLRYCLp8sXPbfiMmYk4IF1GLpi2wOZb3/5DNTWnzRRDW6ivqzcTAeYgyu7AgYN6B9NZOm1mlCtXrhhBQX79AwM25KacULXYuf/oT/7MFB91JV8omIsh92JXXURFX75kHQxKnSE86hpcMJ3QSdARvv3OO4bdr371npkFyM+f/PlfmNIGPxQuow0uOig8a1DsdPKnz5zVX/zlf7XOZnJy0sxUP/je/zSlTnu0Ec7yXs2MwjAH/c7Xv6HjJ09Zx8EcB0KFsoXMf/ubD4zEf+cbv6s3vvRlO+kkqJcW/bb4r3Yky2QOBySOjgryo9HQEBjONi7MW8+KrySFC6Harqr2GhjSna0nMKovW9eB1DbjDnxEUasULK5Z9IwjwyNaXAwmMui1maRgWEPPyTDlcRekgkGf8JgsYjgMCfI8DZTKBxGudZF2l173O89ABnv37zObLjY37IR4ATBRYoq3VDI1t+/AAbPlUXlRgJgoULHYpCBhFhcQFmqACoaHBTZUGhYqi+/s3zIpmrrnVFyzv+KhEDZlRtixuFsQgDGPP5figIgM7yq43a+WPzBi6Iy72OSEmUVOnz6rE6dOmbeApcPSEJxxVihkVMwXrBFSzhOTk+bShapF9S8sLtorE3pMhGBH33/ggNlfGbJz9DompXTzT6wuof4zi29ZkihfJhOxRaIkUfc8y2uoMyjL9vZOK0/SzoQnkzfYlhkSQ3iMhDiuHrXOxByjDOyP9+7d0aGxI0ZaLv/ulSErh25y0gYeF+BFWTJcjkbDVtduXLtuphNGctgaqX90dJgvUNjYjY8eP2H1AtGBeYMWQMdBXmbnZnXn1i3zImBUgWkN8iUMwsO7gBGHm8Qlf+QbFz28NsCOeyA8nkd98izEhcKlI+RZbPvzC/OWHmsvkNv8nN1H/efUEIi8v3/A5jbI++jYqLp7ejU4OGijTMw4tJkHg/etvtLBI1ZIJ3UX1QlZ3rt7R3fu3LLTPphI5HKnk+w/eNCEAc8geAI/2RH99rcf6vr16/rSl79sedm3b/8jE4iuTGr9WjOSpdCQ/PSmnAZLwaPqIAiM4fRgFAJqz1EUr9iHeNaZUFG5ECRDbWo0ZMjwkqEwtlAaHkfZEHZbW6smWtuUXArcTKhQuJ+QDo6TWe9iOI0iope+cvmyYsvHhzP0Y1hmebHTHdY3OaxmWUjWKlpjk5EhNkYOUwQLbNKWR8mGT2+8+ZapP4aIkPqnNolzTWfOvq6zr7+hvl3B0TZMxBEPmJFn/lCXy7y2kj0aUVBhHzpOcyS6uRrZ/YQTuABZOpYnEkiz++zwDwJ92IVQHjabvTyhxPAPGznlWn0RDiSDWYBGDpFxpDuYoqroFAkHgmJWHhs7+WCoyFFAhEceOA2Y75hYY7WeO+GCtNIZ0TFSvhzrDsbcG3RCzQHZcMT78pAfYsIEwkw2jZ86yf28h2yDmfWKqV/S++gVnHTBvahKOjmeJ/2ER/pJL+U3Pj5heaGTx35NnrHBM0LAlEF6iRc8CMPN/BM2nTkdDmklr0tLwagKuyXf4QWAaQ3TCM+6C2VMvl3+zX6ZTlveSAf5YYSGeYs0Y4LDzIRw4Hdc/xACYEg+uA/CJ23uDDrCZzKNzp20UgbUabt3IRAjds/ysVKMaMg/aYHUKT/idhfh0r6ws5Jud9HZkFaexzvitdNnbERKONvxqhnJBkTAKbNxa7jJBEbzgKRogEWWzVWpS+z6dhR3qWQVgoknKiN/2A1RPzxHuCiBq1eu6Oc/+YlmZqf1jd//fZuRtd/m6Inn7H5mxakIAWGsTbL8zv3MkjPjiaP1229/zdxIaJ0Mi5hsIBDu3ci1cldoeZUVfo/LTMgLio+w6DBQqwxz2zs6rZIzKQOhkBbShYJtbQuWStrkh3VEgf/g4zoO0kk8pBsSAHtsrnzFMA2sbNFCNmtKC2whLSYraZDl0hcrNFRLo8NmjX3RqUPUUPVF3ui4GGH8/Gc/UUtzsw4ePmqmEDpW1BWKjl6T9NDAUJK4NVHWvPIdKsnSYmerxY1UsFu6i04nmBBCubK6LRM0/GV/ZzpnV2ZgDXlADhALZIh9m3zzh42S+MKhiJHCaj9m4mRCE9wSibjZT106+A6sSQPxQdYxznlrbQ0UWoyRR5ONYPBiIN2kFSIhbkey1oEVS9axRGJRM7dQbg319UaCxMfwHuxxOYOgrC5J1nkwOnCeNIgbFDFpIn3EQf7pgMGUssfWCsGBCSNM8ldf12CdAqMmSM4I2ly2GAkmVvB1uBI/qhmPldnZrBEz+aL8jCxz+KWX7ABU6jJx5Zay1iZJDyqeeKov6iftApv57tw+U/3YarfrVTOSpSHS27e3dxhR4eZE42KIAIlgz2M4QgEwfABw/PogAoaAuIlgn2GIx1CDCTIaDRWGBoIbDvbIto52ffXtd9TX12fPoW6pACvaq2Liz8onIL+KEY8rMEicCSUmA1BXXV2deuOtt7R7z16buaZSoIapgBDCWhfhrhDr8g3cTzqCyrj618A8wlCf/KPCGTYyyYUNDm8MFh1gk0MNon7AB0d07KhUYlQIPqcQhsVjKSQhQVxUflQFiaahzc3MGu5MNnF0OsNP4h4bHzV8Ozo7zCbKMJVOjEYcpD3IkMsjM+pUeEwePI/6Z6jKggw6VOLlezoI/G0pN2ar3/rSl8xbhLILGhVgQnwxG4piopn/zbyZFvCMYCJocnxMt0nP3Kx6unu1b9++FR9S6gH1BQWGwmHUcvfOXcsjmFBnGMLTOXOh5PE4gaQGB+9bXlHYYM/9Fy7gcjekeDJhB2xyZPzDa7n8rOoEnbbrb0kHB2KCCR4IKM033nzT6n4wC14x+yudCKobZcdIDhc6Jsbw1cXuTgWCCFHk5Amfa7CjDX3zD/7QzEhgG2I0F+VsONlEJN/xHvMN6QcrOgsmYi+c+9RGDYSHfRmsSSemG0jMTBb796vBuWJhiotElayrM9s399LpkQ7CZ56D9BI2HSGdP3WMiVbaHxPZ1FdMMuDARCETjdhmqXfME7S2tGphfsHV1ocQV72jTMCJCTTMTZQbdX+7XjUjWUAxV6w337Th743r1/XD733XVmxAbJcuXjTSpZJCBNgdDx48bP57qBzceS5f+txWJtHoIBaIxlVGZqyz2YxVKAoSwkaFUSHowQMlHAxNKgyNjX+cKeIhCaNwIAcUFgqDysRMMZM702y+MTFhpGEBrFHKRqZGqJY0IznoI4iPj7TMqgdXiJdFCHkjB/MPngxOwIUsiJeGQuOgUwpm7ZvU2c1ih5TNuP/0Jz82mxpKJCBaIg1ZVDREOgfUMWqHRoWfLRUdE0SqLmXKhZl83OOYncc+jj2Oe5kIMtPEciYCEg8FqisMWbUIO/Lua9eMzN792U8NN1QJw01sq0zgQSaU2cjIsMXP8Ja9Hlh0UrCVVjIVxDB1cmJMFz47Z0uBKeuBPXsM+8H798wti5l8ZqEhVi4ICZ9RThxmAmlqekqffvKRkQedFxM/NGYbgSybQ5hYxGcUkuD+73/3f6i7u9c6eSbJIJRDh7DFHrKJMVdqmLEoxrKNIihOA8Z+pv7gt43988Nfv2+TNKztZ2LNXLwKRSM2yB3iwL8V8mfJ86effiwmuxATdHrYbo+fPGmEyEQPLmOQJm2B8AJ1X1JjuskmaOmsnHktu5S1Can/8Z3vWH3BO4DltslknQ4fORYsAkk369ix41bWmE0YvSEsKC/qGzb7zs5uW9iCnfSrb39N5899qsuXL4rJRzpWSJTFFih/U+HhiHb171LuzFndu3/P6ua//r//j3koMALEEwLEOKAVAUGHpHv3AmGAWdDMeNUNRNYx4oHy2w9+Y4ofHLHHQvrb8aoZyWIjgmS/+s47RpDMAF++dMl8Lml8i4sLNtSjEVJRWRHCLPzdu7eNJD/77JxwnUqzFDQWtZ4dQkYhUynpFW/uO2ANmA1MsBNR6ejZUWFF8+kr2cwtM7uoHUgL4qGg7V5mOZePGj9+/IQpWmZfz58/r3TTbVVsiBkxhcnQj4mk6ou4mGRqaWlTd2+fdRTR5aWwQVwdllYmm7jIJ5WeymrkGYvZ5M3nn3+mWzduCB9iOgoaO5MqKxWzrt58a/l89co+c4E6f/6c2cL27t2rtvYOtbZ3qFSurNjUUFHmZXDgoBEpvqbkjYmRI8eOae++vYY3rksXL1wwFWaKCheerm6zIfIZZUcj7OzuVrqlVanloSv+razswVPiypVLunX7pi3cQI0zAQOpUP5M/OEixOQHu3ihyhk2smiEFU4MWSEQiPX+vfvmMvTRRx/aZA92Q8gUz5TXXjtjJhxnhwR7OpgDBw/qd77xDX3wwa9tQxE2AIIsuMAF5e9UHPGcOn3GJjTxP2V9/NXkZSN61DuLSXDhY1ILBekuhtjgiTojnU2N2DoDGzS/4cHyla9+zXamwtz06/d/aUN+6jaqnsUs5INj7E+cOGXCgWE4fss//+mP1dHZbV4bdH7Yhpn0/L3f/6bmZ+dsRPPB+78ytYh5hvCYtDt87JhNJlPXWQCTSiWNsD749a9McZLObDZvi00YmdGhoqZPn33dJqrYwwMR8+D+3eWhfdnKHLfAfTZZe0Cl0rdsYoxRBr7TafIdDwQJHUZLc6vFy4Q2dQR3OwQDnQOYY6bCo+Ho0eM6++abGti718wPqGjSYyOqhoaVFYQObzobRhl4YrAfCKsZqVeeZB1CVa8AD3mxph51wPCI3hiAGXqcO/eJfvSDERs2okxpeH/8p3+uAwcPmz2PQqCx9u8aWLaxTpm/KcMThlMQFRUAuykNgOeb0s1GVtid6HWZcCAMGg1EfPzEcR0+ctRm22kgXKg97LqsKMJsgEtUU7rJfDipEIVCsK8AJoTqC9scKuyb3/qWDh48aCqxo73DhqC4NeGbSvxs6EIHAWnjg4lKJFwaFA3/9dffVEtzizV+yIN09vf3a//BQytLSrn/S1/9qtItLaYeGY6zzRxExnAK+wgbatBIwIX7meUFb3x0h0eGbbKEBgoWdAL/7a//1vKL6kPJQzKQMJOJPI9HCH68uCNBbp1dnda5oYiJB3/KEydP6BfvvmuqjPzyPZgwA41y/F/++m/NDY70YlZgSST5py5QLtQFtuk7cuSI2TDxi0RVM5HErlkoTTCD+FGx4OMu3tMZNf/ZnxtWpBvlRzlBAgxtmZShcyQtTLRge/yDP/4Ts/ddu3LVbIhuyIsq3r17t3WCLg5ewZDh8B/98Z/azDdmC8rOXdQ7TAR0atRHvAHwfKDMWTF48PARc11ioovO/st1XzGljzcJngjED/54nkAokCak/Ff/7a/1pXv3dOfWTeuoqNMo3oE9ewNf3oYGq2uEywQR9RGvAJQmZOxW3yFI6HhADl9p6iQLAm5ev26qmpElduR9+w4IBdvYlLb4g1FJo6lRTAB0auQVkYD5D/s4HQeTk9S5//Jf/0onT54yDw1GKrRp8kL8vf399jymK7jgv/zlX9koZ4DFRU0Pl/KCKfUT3sj/Rc7s5mwMg8jZrlfNlCyAUMlokCgbgDT3rYYGm13H5pq6Qu/L+udgQgFSpZJbg9+71xQGCpfGRkXAnudmVevVYKuFKEhcclyFoMESL/ZbKgD2HRQTM+CEuzu7xyqE2SuXSw37H/HgDE0BM4FAw6KBMARmSMOQnIpUfaE8sTmjarCp8h4iILyDh3BLCYbMrhJBCu2dHbaE04z7dSkb/h84dMgqL7ZqiB+CY0aa+NyMKnniOxQkDZ6ZWhoOahMSYXTAkA/15tQeecDZH7WDCQUTAnZc7iU8lnoSBuv9UWooBeIkHhQg4TAB4jCEpBhZgB15gcii0Zju4vd69bINAZkEIQ08QyOEeOnEUCdgg1nIqTpmqqkfTJpEow3q68O3NK69e/fZcJS8M2qxcmBFWRXBunJAWbW2tZvPJ2qHGXE6HQgBNcfmMJA64ZBnMOnq6rIRCC5e2ElJTxBPi3VwwQSji0HmlYEyw9RAPSBs6pK7eJ7OCFdFvqeDYWUXZjDyhwAAV0Z3XJg5wJtypmOjblOGTI7R+YEdeSU/lB2dGWYkzEY8B8mRHrxFyA8kZx1QOBIIEnM7lOUJcqpOK3EmEj1G1qSL3dFoKzbT39pqWFNPiJ/OPrCjtpgaZ/Ka+kIb271n0Uwx1BkmCcGW9k3a6fjJE2k1XFtbrH0SJiMXSJ5y5pmG5frrsOSVeCDz02fPmsK38lre56P6vu3yPlSpnr2osksCAu4UVETIiyEqkwT00hQMADzLC/sN5EWvy9Z8Fy98ph/+4Hv67//xHf1v//v/oW/9wR+uKAju5Y9C4c+lhazw2V185j7yQcXgvurfq8PgGbMtMqv/mLwxxMHO5eJ14a2O26VhJVw8H6pmvl1cPO/CcM/wG5f7ns+kNfAffJhn97t7zr26eyEDF37QWQUdm7vPvbrwgS6YdHK/BCvqHE4Ov9Xp4253z+o0oUywyf7ge9+1zvLEqdf07W//oTUSGpw9u4ypC58w1gvPpZVX7nPPPEzx+u8cLs5s5PLBE6vTzXeovSAefg92hFo/9Kr6A5BV9bD6mer0u3jXygPlRRhBmh+fVyaDFxYWrcO1MqTcq+pwNZYuPIzI3EPc613cyx82U5f/tXBy91l5UJ8ZlZk4+mJ9q87/48qPMGnJ1flYnc714lh937P8TPpZnPH5559bZ0xHg5CjLiMuzLy5imdqqmSrM09howC4YuWyKUR6bWalUaHVjZ9716ocqysAn1ER/K11rQ6D+1eHsfo5iHKtavm45yzcVWl4XFyrw+JzkIe18/GFNFrDeTSVVNaH3c+jTzwM/9Hv+bQW1qvT5+5b/TQVEtsiyuXUa6f1f/5f/7cWFrM6dfI1U0GOZNfCdHXZuLAfl1Z3z3qvQZgPcVkrH9XPrldvqu+pfk94Twpzo+l35LKRNNA2XNupTo97X41l9Xv3+3qv3LuR+9e6b736ttH8byTe9eJYLz+1+n7bkGw1AAwjsdXgosGQkJlDhj3+2lkIsJgAbwxsn/lCXrt3D2jv3j1mz2ay0l8egVcBgW1Z01E22C+xD+3Zu99saNU20lehYF6GPGJWwUaJuYYjfd752tfM/s4kFV4X/vIIvAoIbEuSBXhINRZrMUP/RoYOr0Jh7bQ8UoZM8tgEyYGDVqZMwDDR4st0p5WmT+9WEdi2JEuGNmLj2mrG/XPPHwHKD4LlD/ssn/3lEXjVEHg4C/Cq5dzn94Ui4An2hcLtI9tGCHiS3UaF4ZPiEfAIvHwIeJJ9+crU58gj4BF4zghg/tro5Ul2o0j5+zwCHgGPwBYQ8CS7BdD8Ix4Bj4BHYKMIeJLdKFL+Po+AR8AjsAUEPMluATT/iEfAI+AR2CgCNfaTrQQbSWzCiLzRjD3pPlyKNmO8flJ4O/F3j8GLKTW8gzc+TbJ+mnx5OgUuWgAAIABJREFUrY/Nyi92ajAb9Gwf/Vg7krWdpUqqlIOdjgykqpr4IpzXie5Vd49/ETivNIBX8M2zxHejYW30vpeqOOBVOjPEk+3OFlFo1dlgtcpvzUiWLQMrlZLCkWiwEojVQFUkWytAfLweAY/ADkRgZbgQHAxaLhXtpObtIKNqRrLBOUhuv8hlPfmqy8odWLd9kj0C2wYB4w8kLWeD2QbR6+7r+yLTXDPDRYAH0XtmfZEF7uPyCLzsCGC73k7bZNSMZF/2gvb58wh4BDwCIOBJ1tcDj4BHwCPwHBHwJPscwfVBewQ8Ah4BT7K+DngEPAIegeeIQM28C55jnnzQHgGPwE5AoJST8otSYUmVYl6qFKVQVKFYUorXS7GUFI7thJw8No2eZB8Lj//RI+AReC4IFDKqLE6qsjCqSjEnOZINRxWKJqREg8L17VJdmxTZ2YeoepJ9LjXIB+oR8Aisi0ClpPLkLZWn7qiyMKZw626FG7ulaEKV3IIq86Mqj11RubFb0c6jUrp3RxPtjiTZcrks/jiTHp84f3kEPAI7BAFMBJlpVeaGpHxGofo2hZt6FGrqk+IphbKzYh1BKDcn5RdUmrmvSKJBqm/bsc5QO45kOV46l8uqkM8rlapTMpXaIbXLJ9Mj4BHQ0rSp2Eohq3BTl8Idh6VkoxRNBZu6pFoUjsQVTqZVmr6rytKMKpnJZTtt444EcMeRbHZpSTMzU1qYm1dbR4cn2R1Z7XyiX1UEMAWURi8FJoLmfgkzQfUVikqJtBSrU7iYU7mYVXluWGFstW0NO3KF6I4j2Xwhr4X5eY2Pj9m65Hg8MIrH4jElk0mFQmGx+QyKN55ImEmhWCioWCyIHRUTiYRC4bDK5ZKy2axKxaIVXDweVywet/tLpaKy2ZyKhbwi0aj4jXgIJ5vLqlgo2rK9aCymVDJl4eXzeQurVC7ZRjeJZNKeq64//r1H4JVGAFvs4pTKU7cV6T4uMbG13gWpJtMKJRpUnnmgSjShUNs+T7Lr4fVMv69UVCqWtJRZ1Mz0lMLhsBFqXV2dWlrblEwllV3KanZmWu0dnaZ05+fnjJix47a0tSkajamQz2l8bFSQYyKeUGNTWvWNDYpFY5qentbc7KxKxbxS9Q1qampSJB3V0lJGU5OTQk2XK2Uj3s7u7pVnMovzKhSKisViam1rV7y19Zlm3QfmEdjZCFSkUk6V3KIUikjh+GOyE5LCYTMhVPBEKGRlKmkHTsHsOCXLdoilUsmIrqGxSZFIVPlcbplES2pt7zCSnZ6aMuJE4WYWFzUzM2123HAkongsplwup4nxcVOb6aa0qVj24cxkMpoYGxXPd3Z12e+oWSbYeEWhMuE2NzerqckJ1Tc0KJFIGqnPTE3abo3dvX2KRncetI+p8f4nj8AzQADijJoXgSolqVyQ9Jg5FbunbPeHovFtsaOWAwFxttFrxzEBWySiSCFaJr46OjuVySxqamJCM1NTqm9oVKlYMBLGFFApV0zpom7z+Zxy2aydxsCwnwk0SLO+sckUL88tLMxrbHTEnmnv7FQjRB6NmmJGATc0NJhJgmfHR8eMlCFnTA8QN+G1trWpoXFnGuk3WnH8fR6BTSMQiiiUalGkZZdQp3gZKEE7WUOelguqZBdUKSwqnGq15zYd3zZ5YMeRLMWBkkzVBZ4FqVRKsVhUmcUFI0gbUhi4wQ7gkDIkiKGU5xqbAkJNZJc0Pzdn5oLhwftKt7Ta75gCsLXWNzYqmSTsmPWg2GNnp6c1NTWpcDikmekZFQp5s9OWlm25ZnIwZZvwrmXbpIL7ZGwvBMLpHqn3lMpLMyrNPlAk2WSuW4qwsiss2wi2mJWWZlReGFFlaVahutZAAWMyYBXYWqS8vbL5SGp2HMm61MObEK7tHRkOr5Aa5oBwuWzEagS7rGQDv9qosN2m6urNDNDd06uFuVlToWMjw2arRbWW7Zm8SuWyESzPLiwsaHZuxoi8Od1sE2iQMYmolMs2+cXEW12qTtHIjoXVwetfPQLPB4G6VoXbDqgyetEWHRSzs4o0DyjU0GEeBcrNqbwwZpNdKuWlSFyV7LzKc0O2ZWAo3R8suX0+qXsuoe44NuD8HkgPOyxDdGyoDN2xkeAdwB+/lysVFfIFZbNLWspkzLwQjeE9EDV7KRNmXV3dqqtLaWxsVEP37yscjqi7t1d4F6BSIWnCxVsBM8JSZskKoaWt3ZQ08RqhLh/eFuY1grF+jeHPcyk+H6hHYIchEElKjV0KZ2dUXDyv4r3fqtJ7UpH2AwrVtRjxliZumgdCuG2fwq17VB6/YcSLqo1EkzL77A7a02DHkSykhqkg3dxs5Prg/l2zs6Iq2zs6hPkAUsR9C++BUDhkRAypxqLRFcItFovmnbC4uKB8Lq/GpmYzJbS1tyuXzZsv7q3r19Tc0qK6VL3q6+uNsDOZBY2PjQRmAhRsKGSkHYvFBcl6FbvDGr1P7otHANts84Bi0aQi6X5VKmWz0VZmM5aWcNtehdsPqJLPqJKdU7h9vyr5JVVYyDB6WeH8okLtBxSYGLa/oNlxJIuLFhNLERQjVpxw2GyoTIK1tLaaW1WlrmwqFV9ZXK3q6uqNCBnOo3TNpFApC2LEdFBX32Dmg/r6BiPTUm9ZdfUpMzngV8szmBnKpbJCCgmPBSbUeLYpnbZwmBSDcJOJwNf2xddcH6NHYAchEG+QmhMKY2/NzqqSy6hSzgeeBPF6heINZiII9jeYlMKRwGd2fsQ2lInE6xRq6AxMDNs82zuPZJMpm5Dq6OxaF1pIc/deVoc8/kqnm9e8ATMCf1wQtU1+SeY5wCozf3kEPALPAAGG/Mlm+7P5lVVBhjHYZWZUuP0/jVCj+95Reea+KtlZhZKNisRTnmRXYbYjPzqC3ZGJ94n2COxkBJJNinQelCp/pPL8iMqD58ytK9zYqTBLcmP1OyJ3O07J7ghUfSI9Ah6Bp0eAfQzqWhXpPqpQKq3K7JDCjV0KNbQH3gjR5NPH8QJC8CT7AkD2UXgEPAJbRMCIts125VLHwSAQluSaX21tJr1YCLWZy5PsZtDy93oEPAI1QIDluLEdexSNP0ixBlXGR+kR8Ai8Ogh4kn11ytrn1CPgEagBAp5kawC6j9Ij4BF4dRCoLcnaxi2vDtg+px4Bj8DzRyDYEMo2Nnn+kW0ghtqRLBODlYoqdpJAsGPWBtLrb/EIeAQ8AusjAKdsM/FWM+8CjomphDjlgKNcQpvbVMUIen2cn/svtY7/uWewFhHQ0T5jl5wdVk7ss8Fy7ed7PQecn2+CNx56FcHaRk3Puj5tPCWP3Fk7kmUtMqCUirZr1iOp2vYfdljr3fZ4+gQaAptzv/SgrYVAha1n2WS/ZtT2hVTVNCXhSHCsC7vw2LktX0je2l8wHDD1u/bPz/3bWsf/3DNYwwhsn+CnFLTPIowXDcGLqlMvKp4XjZ/Fx4CYf5HIsx8VPUWGakqypDuEohWgVDZFtE+RZ/+oR8Aj8LIhYB3zU/bOzwmTmpPsw3xZN/Two3/nEfAIeAReAgRq513wEoDns+AR8Ah4BJ6EgCfZJyHkf/cIeAQ8Ak+BgCfZpwDPP+oR8Ah4BJ6EgCfZJyHkf/cIeAQ8Ak+BgCfZpwDPP+oR8Ah4BJ6EwKZIdnp6+knh+d89Ah4Bj4BHoAqBTZFs1XP+rUfAI+AR8AhsAAFPshsAyd/iEfAIeAS2ioAn2a0i55/zCHgEPAIbQMCT7AZA8rd4BDwCHoGtIuBJdqvI+ec8Ah4Bj8AGEPAkuwGQ/C0eAY+AR2CrCHiS3Spy/jmPgEfAI7ABBDzJbgAkf4tHwCPgEdgqAlsi2VpumL3VjPrnPAIeAY9ALRDYEsnWIqE+To+AR8AjsBMR8CS7E0vNp9kj4BHYMQh4kt0xReUT6hHwCOxEBDzJ7sRS82n2CHgEdgwCnmR3TFH5hHoEPALbAQFO/N3M5Ul2M2j5ez0CHgGPwCYR8CS7ScD87R4Bj4BHYDMIeJLdDFr+Xo+AR8AjsEkEopu8vza3lwqqlIuS2UKwh4TsLxSJSvzZ59okzcfqEfAIeAQeh8D2JdlKWZVCTuX8ospzIyovzapSzEmqKBQKS5G4wnXNCqdaFEo2KBxPSeHY4/Lqf/MIeAQ8Ai8cgW1LsqV8VoXZYRUnbqh88z2Vxy5Li2OBmo3EpbpWhTuPKtxzUuH2A4q1DiiaalQomnjhIPoIPQIeAY/AeghsK5KtlIoqzQ6pOH5dpdFrKk/cVHnmtirT91VZnJAKS6ZkFYpIsaRKU/dUHjyncFOPKu37Vd7zZYXTPYqkexVONKyX501/XywWtbAwr2g0pmQyqXAoJHPiqFQUiW4Owmx2SRxIuZTJKJFIqLu755EwcA8hvlKppGg0an8kOJ/Pa35+TqlUSslkSuHw+uZ07l2Yn1c+n7P7Uqk6zcxMq1wuq7evX7GYV/ybrgT+AY/AFhHYHENsMZInP1ZRObeo0tRdFe9/quLdD1UevazKzD1VMuNSqSBVSss22eXQsiFpYUyVqRsqxxtVGelTOTOlcHO/ov1nFO05rkiyUQo/XRYr5bKR2+VLF9XUmFbfrn4VCwUVCgUzEbe0tqquru6RLEKU622iszC/oMEH91UuVdTS0qxSuaxI1dO5bFbz8/PKZDKqb2hQe3u7/Qoxf37hvHbt2q2e3l41NDSsxOH89lyckOzs7KwWFxcUDofU0NCkG9evKV/Iq7mlVY2Njfb9Wrbsx6WdhDz290rFOh+XjqpsPf656hv9e4/AS4bA0zHQMwKjXCyoOH1f+Qv/odKNd1UZ/lwqZVSBXMuFtWNBSkK85YIqxawq2RlVJm+rVN+u8sFvqBL5XxXqOqhwqnnt5zf4baFY1PjYmH74/e9q18AevR17R9NT05qbn8U8rKPHjquvv1+RSECVKNBisWAKNGKTcg8jKhWLmpub1cjwsPp3Dai1rX3lOXcXinlo8L7GxsbU3dO7QrIP7t/Td/7t/9M3vvH7SiYTpoLj8biRF4oVOzWfuegYSANkWy6VVMgXdeXyZVPPJ0++pmQioUg0YsrcxcsraS+ViqZ0ze5d/aNkYdK5EM/qvHErWKGW+b2aaANMil/4flXw/qNH4KVEoOYkWynmVRy9osKNX6h0/V1VRi+ZIs1W4ipUEipWUmsJroeFUZHCoYrioaIShXmFi1np3odSqlmh0h8q1ndKYRTtFi+UG8p1dnpWTU3Tmp6a0s0bNzQ2NmpEEk/EjbBQh2OjYxobHTFyY8iPaQESDoVDZiLILi0ZkQ3s3mNK+P79+0a67R0damxsshRCSLl8XktLS3aPS3Yhn9fU5JQymUULa3JyUpnFRWF+MEILhVRfX6+Dh44Yyc7NzVla+a25ucXiGR0e1oXz55RIJkxxdnZ2q6enRw2NjeI38oSKxhTR1t6hffv3a2Z6WqMjI5qbmzHVTXiVcsU6lr379ls6yfPQ4KB9b+q7o0NN6bTK5ZJuXr+ubDZrYULC7W1t2r1nr8WJOcRfHoGXHYHa1vJSQcX5URXvfaTS9Z+pMnZFucV5zRYbdWOpR1OFRhVK8ceTrCDZklpjc+pPTKizMqf66XsqXf+pCvEGKZpQvO/k00+I4TVWkSm1bC5r5BIOhZXL5lTIF8yOCgHOzMzYb0MPHhgBQjYou9GRYeVyOaWbm3Xw4GFdvXpFk+NDyrS1mp3VkSyZ5Z9CRPjoFXwTUmYxowcP7mtqalKo4/aOdi0tZS2BbW3tSiSSZpOdnp4yVUqc+VzOzB6Qb2wpJvIwNTlp+dm/f7+WslnNzsxoZGREY2Mjam/vVHNzs0ZGhnXj2jVNTU0YMZLO4aEhy29HR6ep8nt372h0bNRInqTX1dfb76j2i59fMMXc2tqq0dFRTU1OWKewZ+8+I+JHc+g/eQRePgRqSrKl7JwKI5dVvPOByg8+lrJTmi2mdDHTr38fe0vXF/uULz5ByaqicKiog3WDervlkv6o7TM15mZVGrumUuzHCoUjirTuUbQ+KoWrrZ+bKEzjvJCZAFBqfX19SiWTpgZ3DQyos6vLfhsY2K2WllZBZJgYrl+/aoTU2NSkxcWM5mZnzX6LkkSZLizMKZFMqlAofiExX6RYeDf4FpUMgUGwLa0tOnb8pIaGBnX3zh37PpksmHrErpuIJ8ykAMGHwmHt3b9fkOPs7Ix+9d57SqebdfDQQfX29iiRiCsai+nKlUtCKZ84dcrU8MLCgpkHdg3sVn//LjOXoKCZTLtx47qRN99jNmlv77CJPMwb9+7eNRMDzx0+clQXL3wmiP/KlctqbWvzJPuFUvdfvIwI1IxkK6W8SjMPVLr9S5WHP1MoM6GQSposNunCwoDOze/WjUyPSpUnJNHMBWXNlWKqi2b1dssNdWpe5fyCKmOXVWpoV3Hf7ygcOahwXctTlSHDaGbm6+sbjBgxJTQ1pY2c5uewpQ4aiWCvxE5aLBS1tBR4EXAvw2dUplPEmAawYfKbu4gjHI6s2Ef5nnsgYsgVomUyC1sr3gmtre3q7ukxJTv44IG9EhzPlEpli5P4sBkzQdfZ2WVkiJdCsRSkL5tZ0uTkhKWdob0za/BaKOQtThQs5Exc9Q31ZhpYXFzUzPSUkXdvb58RMKYH7LrYg+fn5tTYlFZ3d7dN1k1OjNuEHnFB+v7yCLwKCDyBwZ4fBOXsvEqTd1S+95F5EYQqJYVD0nyxTvezbVooJ1RGuIXWmfhySavAWRXNlVIazLZpOt+kUHJUCpVVWZpRZeqeSth5G1q3TrLLcTgqhAidrRYyw346Mjykzy98psmJCaFu8RKwublyxQgulUpqagpPhXmzbfI7z5F6p1DJEiSOeQF7K2YBiBgyY0KMSadYLGrkyr3YNFGfmC0gXl6Z8CoWIsvEHcz2cy9pxgRhBJjLKYd717J9dW5+TlcuXzKPhHgiuULmZRaE0ImFQ5am6PLqusjyiID0lMsVhVQ2z4VSuWSlUiyWzC7MByP75Y4EUidMCH+tiTV72P/nEXjJEFjf2fJ5ZrRSVjkzrfLMA2n6vpSdtYYKpxbLUWWKCZUqYSNPk30BXQVG0dXvQxUpVFGhElGmnFBJ4YfmzGJBFeIZu2avW8mSDdBRj8sKErJK1tUJwsnl8kZ8+LxOTE7YsDkcCZtabGhoVLlUNLLDTxVPAob32G2xj+KShZsVF8N4dzFZhuKEjLGRQsRMLGE/hVRR0ZgsICqneiHpQOEG4UDu7jsj8FDgZ7u4sGATWePj4xYe8TIph2KdnZszQmxpaTFCLRVxmXPhhBWGGOkFjbCJLzCVQ/L5XF6YB6ampqxzQb2T1mQqabboifFxiwNbLuq2qalJsbj31XVl7l9fbgRqo2QrJVUWJ1WZG1YlNy+VihJCa5lGy2COjHXSkc9B+/5iadg9IVNc5Upw08pjfCxkVJ66ozKq9jHBfDHg4BuIKB5P2Gx7U7rZPAaSqZSWFjOanpnWxMS4KT/UHeTIMBn9CBF2dnULsmXiiSE2z+Eny3DZ7KWJhNl2Y1Wz7PFEQg1NjUZEDN2vX72q8fExU6Cnz76u3v5d5olAWiBawoxEwqZuG5saBaGjhElLU2OT8H6AuDs6u6xDYIJqdm7WzArYTzEBECfmA5QpxN3a2mYKmrDxCIAU8VyIxeL2uyN5fmdxw+joiMbHxnXr5g3llpYs/lRdnfr6+k3hM0GH7RZPBZ7ZvXevdRbrYe6/9wi8TAjUiGSDoXx5cVJi4xfIcJlEeUEwxWNFJSollRiqV0KCQKtMl3Y/WhcRGA6VFQ2XHypYV0LwdCknzY/aHghbIVlIh4mr4ydOipl7CMeG1IWiOftnMxnlUil1dXfbkHlibNzUGhM7b7z1li1eYGbdSKd/lylIXMBYxMBEUUdnp5GgS7LF19ioI0ePaWJiQoODD8yFDJ/Z1868roGBAVO+TLIxjG9pbVMsnjBPgF27BmyxQXTZpADh8p64zpw9q77+PlO4TGThwXDw0GH19vaa4uzr32UkyPCe7+vq68xHF7LmD6LG3kqHwDMM9/E+AA88KO7euW3qe3h4WJ1dnWppbTfc8GKgQ8FLAUywCe8/cNAWRLg8+1ePwMuMQI1ItqJKYUmVfAbP+UfxDVUUixbV0TqnULGiTC6mXD6mfD6qYiFILmTJXzxaVjKGP2pO0VJFYa0OixtLquQWVMF08GhMG/qEWkyn0zpz9nXzBGACiBl4JoBQiTA/KrCuviEg0t5+haMRMy8wAdaUbjJ1ia314MFDWuxdULlUNhcqFGNDQ725PFUnhmWze/btF/6zEBSECEm3tbcb2WGnxYeVXoWFBShXwuI5VClEXUw3K9+BMg1Z/MeOnxBuU2ZLLhaMqOk0UKjcv898XjM2ocU9hIMCd6vbWLxQl6pTLB5X/67d1icmUsHyXvKebkqb6o3HYqbEUfAo7OPHTyiTWTJbMUoYf2I8MMDVXx6BVwGB2pAsyEKuq5fKmr2vorq6nE4OPNBCJKmJ6XrNzNVrfiGlzFJSkXDZyDKTjyoVL6q5YUktzQvKZ6JKzhYUCTERU3UFU+2PLsmt+nkjb1FxLCCoviAL/qovlrqqp/qbR99DzBu5ID1so/ytdfE7BFx9QcL8rXehRh93oag3eqGMqy+8HNZLKwrcXx6BVxmB2pAssyaRmEKRhCpsW+iuEDPZFTU1LOn46RGFGkO6M9yqB8NtmpqtV74YVX0qa6aDwbFmxSJltbcsqL9zWjPTKS3diykaKz5UrGYfCCsUjT0yueSi868eAY+AR+B5I1AbkmUAHK9XiJ2yqmbWyWwohMtTWc2NS1JDSIkou1EV1dy0qI6WBXW1BTPyV+50K1eIKV2/pN29E2qINWpits5MDQ9Zlpn7qJRK24qvRxTu80bWh+8R8Ah4BHC1rAkKobBC7C1Q32bkFwzwA4sp/5fLIWULMeUXo5qYbTAyrU/ltKd3Qt3tcyoUw5qer1c2H1VTXVatTRnlF2NaSMQUXt4JyvJFYJGkQk29trG3J9malLaP1CPwSiNQNVZ/gTiEIwo3dincMiAlm8x0UK0+i8WIRsfTujPUrrvDbaZuIVNMCcPjaV253avbD9qVzcWUShTsdW4xqUwmoVJpOUsQbAXF3KBw52GFIfQXmEUflUfAI+ARAIHaKFmFFE6lFWnbq2LvKSm3IM3cV7kiRStFhZcqev83RzVSaNbYbJ3qEwXdTOX0eV1WhWJUC9m4phZSakjmdb1+SbFwWcWlilpzMyq3hST83LH7RmNSY4ci3ccUrg/2ZfXF7hHwCHgEXiQCNSJZKZyoV6R1QOE9X1F5fkLmM1vKqiG0pPbSvD66mtb9pQ6VoiVlyimNl8OmTE3xIkkjJc1X6jVcahP+sj11k9rX9kDxCq5aIVXCMYWaehTuOqhY56GtL6lFEFcqK3uzstAAVyRWNNlqquV9WFmEgJsW37v7g71XY/a9X0b6Iqu1j8sjsH0QqBnJspoAk0Fs79dU4SyvmQcqz9xVb3xKv9d2Ua3RjAZzLVoou+WXy4N9VnWxlBa2xRyAHA+V1Zea0pH6QXXGp1UORaVEWuF9v6vI4T9SpKlHoVhyS6hDmNmljHCyZ/8A9lLF3Yk9WtnSj4vlrywZZTcuth1k3wE+T05Nqqur2xYxsKDBXx4Bj8Crh8CmSRYfzWd1hWNJxZp7VdnzFWlpVqXL31WyOKRuzej19E0dLieUWyHZtWPltC027W6MLKk1uqA65VWp61Jk4A3FDv2uov2nFU7iI7o1iyxqNRqL2+omdsFi1ymWxYIDjvls9zc8OGjLaxsaG1QutwVim/0EJLFfAA7/nmTXLj//rUfgZUdg0yT7TAFh96hUWtHeE2Lrw8rCqKLhmMKL49pVnLPt/B7uI7V+zJAZ2wOGOCY80aVwz2uKHPqmon0nFWvpx49r/Yc38AtmALbsY59YzALsPJVKLdgKMDY/YcOVzOKCbfzC0S+YDNgnlj0PIGbMBv7yCHgEXk0EakuyYB4KK9rUqdDAGwpF4yrc/KV06z1p8oYimelg8xhY1P1Vl9Oy1cAmueL1UnqXwgNfUnTf24rt/Yqi6e6nJliiM5NBdsk2umb3LDZ+YbnpxNiYKVVMF9hpuY/t/GLRwA7L0lGWwFZ7TlQn37/3CHgEXn4Eak+yYByOKdLQLvWfUTjRqGJzv4ojl1Qev2aHI2ppUsovSuxXCrHairGIFK+TkmmFGjoVbj+gcO8pRXtOKtp5QJHm3qc/cma5/CFPjgNn3wI2ReFUgFKxYNv/YY+FePPZnO0rUFdXr87ubjtJwE2CbdFS8fLXPp9Dj8ArgMD2IFmAjkC0bQrH68x/Ntx1TKWRSyoNn1Nl6ra0MCEV8sEeBNiFY/H/n733cG4kSdJ8HUhoQa21KNm6Z3p65MrbvXv3/t5ntna2z+7d7d5MT8/0tKrq0oosaq2gkcCznyeShWKToCwCLHqUoQCkCPEl8cUXHh4eIokuCbQPS6BrSpzBj3Qb8FCqRz0XxPF2bj3vM4RgiQPLdjGQJkRLHFgUKtGvUKtwfqmMv64XiJt4sZgVeGEuYIcE8vG9Ec5bJ7vfEDAErg4CrUOyYBZwdKltKJpQW22le1wqY7+QyuZrqWTWpFryNgtUG2soqgsMdFFDsleCqW5xEh0iLKO9wARJ7u7uyOzsrHoNYLUgGhaRuXTDwFJJN08kqDZBWziXzWVlbW1Fd3mFgLHPEnybfcHqA3RfYDUtK0PAEGhRBC6WkS6skUHdxjsYS4m0D0qle0IqhYxUK6V9cwExCQLRpLeiKxy9ENvrYdVnRwQnFNZwhiHHUdtrT0+PpNra9reBae/oVDctYrDqTrF7uxp7tbfPVS8EYq6qVwaMa8kQMASuFQItSrL+M/CidQWTXapsvajd7InCeaJ1O6p+/avfxbujJoKURCITum+V7pQQDuuOrH55hEIkmLVu0RII6G4IHOvvY+LzBqM2AAAgAElEQVRNvImwSMTMBT5g9m4IXCMEWpxka08i4LDdatMeC+5hBOZulCBjP2Gn5RWN+kfs3RAwBN4nBNhB5KTpfA6kJy3FrjMEDAFD4JoiYCR7TR+8NdsQMAQuBwEj2cvB2UoxBAyBa4qAkew1ffDWbEPAELgcBIxkLwdnK8UQMASuKQJGstf0wVuzDQFD4HIQMJK9HJytFEPAELimCBjJXtMHb802BAyBy0HASPZycLZSDAFD4JoiYCR7TR+8NdsQMAQuBwEj2cvB2UoxBAyBa4rAmwX3TQCgWnFF1wBXicR9CYkoWJdV1gU3R0MkVqsal/aCs7bsLgABng9bD72v6Sq1j4h3AQ0e1RpR75pGstVqRSrlsrhu+fKI7wqTLD9e3RTiff0VX/V2XfG/rWPhv0LtqzqOhpUOOk2jt7fgbFotAmyiGAp5Pc4lqks2ZvT2kX0LhyvxhY4J3CwZAs1A4Er8dhCvwYBurNoMjA4rs2kkS2WQ9JfOGRA6vfJVTVe9/lcV90b1vi7P5Lq0s9GzPsO56yeLrjLB8oCvev3P8Efa8rdcl2dyXdp5wX9w149kLxhAy84QMAQMgUYIGMk2QsfOGQKGgCFwTgSMZM8JoN1uCBgChkAjBIxkG6Fj5wwBQ8AQOCcCRrLnBNBuNwQMAUOgEQJGso3QsXOGgCFgCJwTASPZcwJotxsChoAh0AgBI9lG6Ng5Q8AQMATOiYCR7DkBtNsNAUPAEGiEgJFsI3TsnCFgCBgC50TASPacANrthoAhYAg0QuBUJFsulxvlZecMAUPAEDAEDiDQ1ChcB+py4GtVgyBXCVRdqdSCVb8J7q3hCgMBIZhwoPYucoWjax1ovX01BAyB1kTAcZxTVaw1SbZaEbfsakBvt1ySqlv2dlDQsNVe+yDZAMF5eQUdcUIhIUivRkQ/FQR2sSFgCBgC7w6BliPZSrkkpUJe3HJZ2J5Glayw7QogvK1kA+yu4JY1CHc5GFSSDUej4oQiFhKw9jfjuq7kslkJhUMSCoUlFGq5R/7u/rotZ0OgBRBomV8chMpWNG6hKOVS0SPYfXL1kfJJNsAZj3Kr7HQgIpWKql1IORSuiBOOqMr17zzPeyGfl+WVFclm9qRULosTCEg63Sad3d2SSCSEPYX2TRoBorIfbupmPzM1bdTiclLXQqEge3u7UnFdae/olGjE6yC0c9E9vSriHLGNhn/NYeX557a3t+T1zKyk29LS2dklHZ2dWgcPsrfrcxAj8qC+lgwBQ+DsCLQEyUKw5WJRSsW8oGR1c0WlTp9UDzawdvztN5GKK6UiZOtKuFoRVG0geL4mMtm3sbkh337zV9na2lTSgQiHhkcE24yjm7YFJbu3J4ViUYJOUNrb2iUSjSrZ5vN5rQ9KPJPZ0+1jIOZIJCLFYlFWV5bl9eysfr5x85b09vZKNBqRTCYr+XxOSqWSpNJpSSSSEg6HpQROpZJ2MJynfpyLx+P7KpV8M3t7et3i4oLc+/F7GRoe1bLT6bRUqlXJ5bKSz+VU3SaSSYlFo4p7vlBQwmerG+pMXcMQvyVDwBA4EwLnY6AzFXnwpqq4pVKNYD3bKwrKI9qjSPZgHt53VXSBgJoQSkW2mREJhz3b7eF3HH8UklxeXJQ//+mPMjQ8JL/7/d9JMpVSIk23tQnnF+bn5ad7P8rS0pLE4jH55Re/ksmpab3u6ZPHsrW5KblcTl69fKG24/HxCYFQi4W8/Pmrr+Tp08dSLpU1n08/+1z6Bwbkxx++l1evXsjO9rbc+eBDuXPnrkzfuCGzszOyuDCvhD4/N6fETX537nwgE1NT2qDZmRn57ttvZG93T3Z3d2RzY12SyZQSMkqcejz46b4sLy5JW0e7TE3dkDt370qpVJQnj5/I1uaGYGZIpVJy++5dGR0bPx4ou8IQMAQORaC5JFutilvGPFAQneDyDK9KsKhChtDHJQiZhKpEHfKuJF0uSzlQUHttOBg/s42W4bJOrjlBKZXKks1m1VSAUg2hLEslJS+34kqxVJRcPiePHz8S1OFIZFRJcW1lRcrYRnM5Vafra2sSi8elra1NUIwoz1KxpDvLBIIBrb+L+cOtSrnsyssXz1VpTkxOydLiojx79kx3+N3L7Ek2k5F7P/6oirStvV1J9fmzp0r4kXBYTTCbm5tat3KpJMtLSzLz6pXMvX6t5awsL0s2k5VUOqXXPHr4QMkWxUtnYuaC4/4C7bwh0BiBppIsJFoqFGo2WG/Pel/FohAhBZKvUJVQa6Tq//gZ+jKuZSithBgMSgBbpoi4JSbFCjoh5oTCZyLaaDQqPT098tHHn6giffL4kWxsrMvY2ISMjo+ruQBFOzI6JvFEQtbX12Xu9ayMjIzK4NCQbG9uSiaTEa4hD9TnN3/9WtbXVqW7u1tu3r6jJJvL5uTuBx/J0PCwEmZ/f7+EHEfttY8ePpSFhXklzJ3dHVW3nZ2dMj11Q226X/3pj/L69awMDA7KsydPtA4dHR0yNTUlm5tbgrINBugkSrLy8oUSNUoVtb0wPyevXr2UkdER7dzWVlc0n7GJCRkdHZeOzq7Gf0F21hAwBBoi0DSSZaII9aoKtuIRrF9TJVqXiTBXiROFCtGiJKtS0c+QKudRgZgWeHFfjYM1K1QiRM5EGvcHjphA8ss97J3Z+K7ubvnNb38nqysrsry8LM+eekRWdssyNDikanJ25pVsbW3J7u6ubKyvqeL1nSGwqY6OT8jUpDec//67v0khX9D69vT0Ci+IuH9wQNrbO1SNLi0uyML8gtpOV1aWBWWptthKVWKxuAwNDSvJc99335JfXlDIL14812ZM3/xCJianJZ1ek97efrXZorQXlxZlfv61bKyvq4pGya5vbMjW5paOBGjv8Mio3Lp1Wwk2FosdBosdMwQMgRMi0ESSddV26rtpHVVf1CmEihkA1VqtBPRzNBrTYS0TP5XK0bZb7sEdrILHwel8iPerhOtT/8CgtHd0KPG8np1Ru+XMq5c6ecSE1tramhI5ypcE4VN36h2Nx5VIGc4nU94kldeRVCSSiHg+vsGghEMhNT3sbO8I5IfXAfk5Qa/idCrBYEDi8Zh6NnR0eJ4CKGjKosNhBEA5kUhUorGo3q8qPxhUnDBL0FmBGx1dZ5fncdDb16vH44m4dHV1SVdXt0SNYPf/BuyDIXBWBJpGsp76dH1HrEPr7ylT1Kn3ekum+jLx0DvrDtZ8afE4OAvHemq5oBNM1UpVFeHg0LBOJjE7D+HSFohpYHBI61osFCQS9VyxsNtGwpF9ezGEjRLFb9W3I0OCdBO5XF6CwR3Z293RjmV0dExGxsbUJJBKevZRlGY4HNHzfOYFEeMBQD6YIMArs7urHgZZvAgKeDhUBRtte0e79Pb2Cfl99PHHkkgllcSHR0bUXotZgryomyVDwBA4PwJNI1kUrE5sHS1C91sH0XGZbxJAtaHE9LjaB47ORM+4XlmUedoVYZTB5NL869eSq9mJMUN09/To0J4hPO5QvEN2kOjQyIh0tHcoUeGbCtHGYlH9nkwmBZLmOJNjuEhhP93b21N7bVd3l65gQ52iRiFRvA3a29tVKafb2pUwOe8TLOfJlzp98umnsr29rZNYTHDhh4u5I51OqV14+sZNCYfCsra66tmwA0Gd4ML7gHr09fZpnViubMkQMATOj0ATSbaiw9XjmxDQCat6l3ifUlXhHpdBTQUrqVcq+0Pv427zz+OLz3IHvAMgW0gLO2VvX7+M1Vyb8KPFzQsvhHAkrO5ZEB+25NGxMSVNFi+gNCG8Dz/6SLp7epU4fdLFrKE212pVCbi/f1AKhby+ULQM632zBeYACBEPh6SI3L59Rz8zWRadmNCJLya7ULAQ6seffCqDg4OqtukIULSYAvCzzefyqqzBksUQk9PTghlCJxt9EOzdEDAEzoxA80hWmfLtiaqDrUCxQnLYKhm+ui6TW9hWHR0yQwwQU+WYwDAU5Qlen54PlnT0d4ixvb1Npqen1eZJHagXtkvUH59xf+rp7tFgNSxOoDrqxB8O66IF2uCrUhTs7bsf6MouiA4PAsiRiS1WvOHapUQYiahS1wm7QGD/GNeirlmwAOmiZqdv3hInGJAoZghc2aJRXcDAZJi6mjkh7RjIlxgPTGy1d3aq9wZeB0rWqZSCoAsTYjFt19Go2BlDwBA4KQJNI1kqqJSHRD2G+yAVEnZViBVig5AwH3ipcQaeCm58TS2jQ94CSpBd3d6E1iEXqEJNpdKHndJhfP0J1C322/rE0J9XfWJi77DEyq76BMmiautTPJ4QXkclNVMk0cA/TxCxJUPAELg4BJpHslgBjuFXNQewBDSflyAruWo+sZAuK5eYHVc77XF4qCL2zA7HXWrnDQFDwBC4SASaRrJqCsB3tTap1bBR2FVZ1UUglpojrB+QRb/Xjh2Vx35ZNplzFER23BAwBN4RAs0j2aCjAUtEGPI3Hsoz0622Tn/1Vw0MPAyOS28I1i/vuDvsvCFgCBgCF4dA0/x0IM3gCSJkoVSZzMH2SIKOmQzC0R5fU1/ZHgmJmgoI7O3toHDkdXbCEDAEDIF3gEDTSNbfzQClefy2MZ49VlcqlUo6uw4WugXNsaAEaiuqzLn+WKjsAkPAELhwBJpmLmCNK9vF4FJUJT7qAbtqIIDS9foA5WH1d8W0QJQqj2AhaK7hXjUL6IVvY4TvauicAbwxS+zt7qq7GOXg28oCAxKrvljOynGNExuNqmsUPqrEfqUzwSMA1yxLhoAhcP0QaB7JMuxnWWgkpl4DBIrxl81CWI7DWvuQ+sn6ZIt/rH+Od477yz9557vPszpRRlBtfGw1AtfZRDveCwRhIU4BREtQbvxMWVxAIvQguw8QotBbNNAtuzvbGqxle2tbFyew3JZlq5YMAUPg+iHQVJJlQisUiegCAwgW31fesb+iFn1165OsHxHKI1rPTuv7dfqkyztMi5N9OBqTcCSmGy6e9dFSdjKRkLHxCY1cxe4IBIMhFsDAwIAuNmDBwuLivK6gIoBLWxtLYKkfxxcks7d71uLtPkPAELjiCDSVZMGOWALsx6WEWsTXgAUHFW/Lk5oJQYmTSS91QsBW4FljUa9vjnmzYlzLLraOE5ZQOCpBVOw5E6YBInBlshlx112J6EQcZojQvp8uy22JcEUQGd05l6hXrqtRsViVZskQMASuJwJNJ1lgZzivApQYAaWiuK5nOtAtEjV2QO3h6NKtA+u3vK96gdpxIdhwWBUs7xeVIEp2fWW9P3EJiCVAIn7szs6WEHkL2y0v+oLdvV1Z31jXcIy+Ir+oulg+hoAhcHUQaAmSBa6gE5ZwlG29HXHLISVblCCq9rgEQXuTaGHdDhzSDobwJqhj4OMyaXCeTQlfPH+mBEvwFAJrY7rAZEB8WOIRQMCQKxNhCfYAa+/QnRmINWvJEDAEri8CpyZZf+j+LiBjmB/Cf7Y2iUWwbfbOUqJVU8GbUvdFLV4I2GBDYVWw2EElcLZJrje5v/mEMmXii21aMAMMDCalVCa8YV6X9WImwEQA6UYjUSVatpKh3kyS4VVAcBhLhoAhcD0RODXJvnOYaoTp2WpdDQqjipbtZZTCvBpglWXijBeTUyjZ08aKPUlbNE5CzcUMwmUjRbwGdONDEdnc3FASZsEEGw+yWy37fOGJAAGnU2mNiHWSsuwaQ8AQeP8QaD2SrWG8T6ASUsX4MzWrk18e0e77bb2D54OnA2EIp2/e1Mk5wgnGY6hTb+cDXLyIasV3L8ZrRK8POSFhDzCuTbcdHqHrHVTXsjQEDIEWQ6BlSfYNThCpI4EzbR7zJpezfsKDgZ1m/cUEni8ucW69V4o4rP5+XjU7MDba9nZvY0eu9315z1oHu88QMASuLgJXgGSbDy6Eqsr1kKr4MRXqT6n5wiJ+1UNinw2Ba4vAxc0QXVsIreGGgCFwnRA47eS/kex1+uuwthoChsClI2Ake+mQW4GGgCFwnRAwkr1OT9vaaggYApeOgJHspUNuBRoChsB1QsBI9jo9bWurIWAIXDoCRrKXDrkVaAgYAtcJASPZ6/S0ra2GgCFw6QgYyV465FagIWAIXCcEjGSv09O2thoChsClI2Ake+mQW4GGgCFwnRBocuyCqlQrbgvjTdTaA4FsW7i2564a0c9rW/6cO6+rmoFhcEFPrnm/HXZIuciY0ucFpKkkWyVGbIUosdeIyM77xOx+Q8AQaIiA7pQS9DZUbXjhJZ1sKslqzFgJtDjF0gFczDY2l/RMz1nMdWvvOeGy2xsg0Jy/JQ3gAtO2SGoqySp5Bb2dZ1sED6uGIWAIGAIXioBNfF0onJaZIWAIGAJvI2Ak+zYe9s0QMAQMgQtFwEj2QuG0zAwBQ+A6IMCmqidNRrInRcquMwQMAUPgDAgYyZ4BNLvFEDAEDIGTImAke1Kk7DpDwBAwBM6AgJHsGUCzWwwBQ8AQOCkCRrInRcquMwQMAUPgDAgYyZ4BNLvFEDAEDIGTImAke1Kk7DpDwBAwBM6AgJHsGUCzWwwBQ8AQOCkCRrInRcquMwQMAUPgDAicmmRdt5Xjv54BAbvFEDAEDIF3iECTo3Ad3TKNNVt1peISc9aVKsGk6wNKB4JCSDMNlxgISNBxxAvW2zohzo5unZ0xBAyB64JA65FstSoVtyyuW9b3ShmiLUtFCfZNcG8CJAaDQZFgUIJBR0nWCYUl6ISUeK/LA7zMdpZKRalUqhKJRLSDu8yyrSxD4Koi0HIkWy4WpVTICuRalYriqgT7hl/1mO6nUK2IuAGpSFG3m0DNhqMxCUWiEgg6F/5MIH7HaTnILrydh2VIQIyd7R3Z2dmR/oEBSSQSh11mxwwBQ+AAAi3CGKhXV9xSUSBZt1yWKgRaC6yuBoAjrQDVmimhItCyFPJSqVQkFIkIyva8uxpgptje2pIHP92XRDIpuWxOorGoRKIRiccSSjipVEphLZVKgs3acYISCoXfqL2qV0e3UtG6cXEoFPKUeO2BUA73844ZBLXoJ47TJpQ792nkd/9k7X3u9Wt5PTsjjuOIo3k7mkdHR7sMDA7qPQwGuBesgTYcDmu+ECh4cy/1rk+UXcjnJZ/Py/17P8rKyrL85re/l+GREb2ee6kbifzq6wYWxWJxv97k7yeOc59X5ps2kR/30c766/377N0QuGoItATJYg4oFSHYgpoGsMeSPDvsySBVDq5Uxa0UxbPnenmcl2j50W9ubcpf/vK1pJJJae/okLa2diUI6heLxSQajcru7q5sbqzL3t6eOCFHenv7pKenVwljZ3tbz6HIIReIa3BwULp7eiQSiUqxUJDtnR1ZW10RyovHEzI0PCyhkCPZTFZWV1ckl8sr6fT390tHZ6eSkI8M9VhcXJR7936U7u5uSSaTms/Ozrb09PZJe3u71os6kiBCCJG20Glsbm5ovbhuYHBI4vG4lMsl2d7ekfXVVdne3pZKxZWf7t+Tzc1NufvBh9Lb2ytl15XV5WVte9AJSl9fv3R1dUkoHNZjG+vrQh3AqKOjUzq7uhQ38FhbX5VSsaQdV19fn8Ricdne3pKtzS3J53P6vbOrUzo7u4xs/Qdt71cSgeaTbLUi5VJJSoW8VFFY1YqSK2oG5ecTbiN0IQ1UHsoniFJjoqxY8Hbmqoo44TeqsFE+h51DbaHkUHChoWH5ZGJKRkdH5fmzJ/Lj9z/IxOSkxBNxefLokdy/d0/mZmfUJvyb3/1OFV+hWJR7P34vX3/1JwmHwrK7tyNbm9vyX/7lX+RXv/6N9PT2ytraqjx6+FD+9s1fJZ/LK8H+63/7vyQUDsmLZ0/lh++/k5WVFZ3Y+/t//Ef59NPPpLOr+40SVhVc1InB6ekbSqxLSwua36uXr+TDDz/WPB4++EnciqudBeR748ZNWViYV4W6s7UtN2/fln/+l/+qyjeztyf3f/xB7v34gywsLEhnZ6csLS4oARaLJSXtpaVF+fOf/igvX74UJ+jI737/B/nFF19IW3u7vHj+TL7/9ltZXFyQnu4euXXnjnz62eeSzWbkxx++F+qS2ctoWb/9wx+UnL/95q/y/Nkz2drakmQypdd/+ZvfSCqVftPWwx6SHTMEWhiBppIshOruK1hXSQJVBsEyPEXVHTDFHg5ltarqKRqJeMNwxsWuK+USttqa58E5bLQoUJT21uamrCwvyfraqr6wC3vkHlJFhsosFguytroqr2dnJZHEnDAk83Nz8t23f5MvfvWl9Pb0ScgJK5FwPJlKydzcnMy9npWu7h6hDSg+FO/s7Cv569dfa96jo2PCxNPqyoo8e/ZUPvssLdFYbB8POqrdvT1ZXl5SVTw391pNJV3d3Wo2WF5aVOLr6++Xgf4BGRgY1Hw7OrtkcHBYJw+1zJkZVeaQ4csXz1XxTk1NCZ0FbaXTccslmZl5JT/++L2Uy6709/VJqVyW9fU1vWdqalpWlpf1NTBAWUPS3t6hz3RxYVFevnwh6XS79A8MSntbuyr52Vev5NXLl6qyh4aGVQnTsUG6N27elHS6bb+t9sEQuEoINJFkq1Ipl6VUKOi7557lUaqqR4bVxaKqwlDNlsdxkq9c+c4LYuaFkvUnpsjJs/OWxHVKEoqwRfCp3YL3nyX5o+4g2VwupySYSMT368JEUFd3lyo9huBra2vi/vSTpFJtkstmZXdnR0ZHx2Vyalp2trdkZXVF1fHY+IRsrK9pnp//8gs1MwSDASkUCkrOs7Mz8l//+/8tE+MTes2jhw8EQvrgw4/3SZa2aseUo9x1CQQ3ZHFhQcKRsHR2dKr5gjpDxIODQ3L7zl2ZmJrSUQKmCtQ0HQbnFxfn1eRQwlywsyO3bt2SickpmZ2dlc31dR3SYxqYhWS/+05u3rqtZEl9M5k9LReSJC8Sw32InaE/5gpUO3h89OUnMj4xiVFIMCssLy1ppzo1PS0TE1NK4pgVXr54oXU2kt3/U7QPVwyBppEsQ3rXZaKoVDMJvK1ZPbtqVQJVXIaiOpnED9knU+yg2DZRvD7RvuVHW7PpUg6KFteuYOiMJFubjMKGiZ0Vdbi4MK+Eks/llFxQkA/u31c1li8UENBSqVZUfWL/hCQGhgZlcmpKCRc7byaTUbLGF5j2DA4NKaFgk3zx/LmQN2p1oH9QJqen9dpnT5/KXmZP21z/t8ZkVzKRlJGRES2Lz9/+7RuZn59TrwCwisXjAqkPjYyonRa1iar84bvvFEtsseC7u7sjgWBARwWo69GxMe1Mnjx6KJWXFVlfW1e1PjszI65bURsxZEkbOjo61MzR1t6hKhgTCB4Jn372mezs7sre3q4kkinpGxjQyTPUM/XgOfb1Dcjo2ISSbzQWlyePHyr5co0lQ+CqItA0koVEUbLVKjPdbxPsQTCZrfdUqqPk4s+yQ666AKHm6nXwPr5XK55ihmyDcr7m4l1w8/YdSSYTkstllVCZkNrc2NThPvXp7etTW+PO3q4U8gWtL3WH4OKxuLo+YQbxh97UEcWtppGaKucYiyxAhePky8tVt7YqHsKevbmuwdii8XpAlTIphbvZV3/My2ohrwqce5mxT6XTWg++Y6bY3NhQT4l0W5ueh2QpFz9kyvS/0RF43/Wk2mRpQyweU3sqphEmBEfHxtUMQYeBjffJ40dK2k+fPFEzCKMQCL/e1s4xUrGEZ4m38AQlTXmUUTtd11r7aAhcHQTOxzrnaCekx4+oUdIffLW6TzQMiTlGKpZKHjHh6tWQpKveRFjFs/me5RcLCfAvl8nK4sKcTsSgzsK4iTlBKRQLsre7pzbVtrY2VV9z86+1jgIhBoI6IUfZPolBYxBIGFelUEgJmSF4NptVJRiNRkRdw6qik0d4LGCGADMUNUP2+oR9m6E/9mCIeWNjXZVkPJHw7NQOizZqhBUQKbtl9XhgIcfY2LjahukUMtmMxOMxCQaCSoRrK6vy6sVzmV+YV2KlzahkzB6vZ2b1XpQuZgEmvPAuoFNBveM9cUtuy9rqmqyursrY+Li652UzGVmYn9d6gS3X04ExCYd5hGPYo8GCTisSfWN7rm+zfTYErgICTSNZNQco8R0PE8NFfniqpGpDdz77L594D8tJKbnKta4uzw2ccjGBTwIMhZmI+frPf1LzBcN4bI1MHEHyuCBhh2ViCq8IVCOuWJANPq+QiO/j6gTxg/X8UUMRj4wgmL/+5S96Pfl+/otf6DB9ZXlFTQfPnj5Ru+v4xIQwsVTvR0u7WYmFu9TfviGPiBItLlXjk5NKdpD/RtwjXL9NmDCWl5aFSTGULG2kXQnqHYno0J/JL16UhwLFFQs1zGtlaVlNJU8fP5a2jg6tF14BeEgwkffTT/cll82onRwShjDBAFWPh8Hjx4+UlG/evCWDQ8Pq54tXwuuZV4LJZWx8TKZu3PA6m8Merh0zBK4AAk0jWalUdSjfCCPIgMS7/xk1qN9RZTVVu3/usMxqw1/Pxlv52TD7sFvqj6GyIKMPPvxIZ+6Z0EFhDQ2PyK1bt72heaWiyu75s6e6cKGjs0MGBgcEYutmMmxsXH7xyy+kq6tbycvzgx1RUQ05j4yOap737/+ok32YD+KJpEy0dahp4OGDB7KxsaYEPDIyJhAtROon2o+CxAMBDwNswfjKMimFSxfeCjdu3lK3KOzJkCl27vHxCVWneBKwuAL/W8wN7R2dSqo63H/0SP1o2zt6JZlKq+8udmnyj0Vj8tVXf5T1tTUlYMpl0o760KmVS962yfgMT9+8qXlHozG5c/euvMTmnM+rTRfCxpa7vXVXZl69Ups1WDFRiMq21WX+k7b3q4hAoHpABvIVhciQ059YYoKGmeGZmRn59a9/rbPPDYntBEgUsntSymdVgdUP9ymfchmO884Qlx80ZOdPfDHEZUiLwuWHihtROIxyjAs/Yobw9Yk8I7GERGLxM/nM4pbFDHgeGyvuZYW8khqkAwGQP4sQUJLFQm5hgjoAACAASURBVFH9ZkNOSIf9KDv8bPd2d6Wrp0cJDnwhahImAbBmQghHfMgJ5338WGkzk1+sOMMkgS9qZ3eXmis4V58y3L+1pZih3lGM6VRKEomkRKJRdT8Dv7Z2T7GCYaGQF2bwebZcz3WUnUqm1CZMnbTsQkGP0StAoqh3PD5w66LM7N6eXk+nQnt0McLOti5mwDYMRihlsKCtTKyxwAH7K8+MTgDzCPUARzDkO50b9/E3YMkQaAUE+K0vLy/LV199JTdu3JB0Ou0JjlhMhQm/I88s92aJavOULEG1QI26eGbWn2HoH4aUIHUa6L0qutqI43w/MoNajtpc/nvT7p+V1egAqo+VUFoW5dUr69qNKDEA5xoIsL4Tgriwo/qJhwAh+YmhOMoNX1LuZxKLOAwkzA340vrHmRA7LEH4vMCEdJCYUKkHEx1Sb29UbckMGrAd19eb+rAQAHsvrnH158grATETLKa/X32cvUhoHsgslkARa701iI9Xb67v7u5RswN1BSu/rpgUMEdw/OAf6sG623dD4Kog0DyS5UctgcaeBTVS9W2y/GB58SOsf/lkfCTokGLN7HDkNSc4oSTTYKr7oLo8QZZvXXLU/T4JvXXxEV9Oc61mUZt4OiI7JUGRt1Vz/bX03IclsDqqPVzPucPOH3ffYWXZMUOglRE4/BdyCTXmx6QvX9E2KBNC3b++RnJ4GnAc0j3oH3swK+9eb5b/4Dn7bggYAobAu0SgeSQbdCSA7VSjbTXWoqgzVA9kqYl3bLfl0v7kylEg+eSMDdLzqT3qSjtuCBgChsDFI9A0koU4IT5XvBnoo5qGUmVIygs3JfiVez1nfZaCNr6ffIktq4Tuk/RRhdlxQ8AQMAQuGIGmk6xnl23cKoiWWWldrlqbDGKlkWdpbXwv8QqYtIHQLRkChoAhcNkINI1kWRTgbRdT3A9veFjj1eaqzvYVdZ/iGgiT5bL+Of/9sPvV1BCJ7M/WH3bNccfwsd3LZNSxHrJn5hyPAUwWrJAiLirmDEIeQuisaMLtjahZLDX1FyIcV46dNwQMgfcPgaaRLFAGMAOEI0qW+FP6E1hqR8WcgB225o4Ekb757m2g6JkcPNcgNSG8ZQ6oXaPLVsNnjsBFuUSwIvoWPqWQLH65RJXS+LDbO7K7t6tuV719/Uqo+HoSbYqoXfmevAaVOcyF6v37c7IWGQKGwEEEmkqyKFL25IJJq3lvCxp8XlGFLEDA8Z+EPRayw8eSBKHiP4pDfP0xrsNZXp3DiCIViWj+vs+p3nzK/yBKdiYgvCChA3Gof/TgJ+nq6ZZbN2+rhwMxDXZ2dyQWT+hyU1ZPeX6wVVmcn9e6G8meEni73BB4TxBoKsmCoZoNwlEJE2ebiFMafcmVSDgsVcgVUq0pVEhU76m5f6kpQGMRePtioYAhVLXBhsKqkkPn3OeLVVEM/SF5lrqyYorIUnQG7vRNXSjAslRCF7JaizphSmCFFyuX/FVS78nfizXDEDAETolA00mW+qptNhgUl8havJdLEsQPViNsNW6R43huXZ6JwdsaHBMEO9Z6Crbm9tU4myPPEi+V/a7IPxaLClGtCCZOxCuOscoLc0IotLSfB4TMclhss95S0/T+OftgCBgC1wuBliBZIMfNKhTx7LBuOaybKopb2jcZNHosuHMRLjAUimhsgqDu6Hr48tNG+Rx2js0MUafb25sSi0c1zB/lsT4fkwXlEitBST4Q0O1niJy1sbGhUbPYPpuJMkuGgCFwPRFoGZJV+Bnus5W2+sEGJFgOKclqgOeDMQrU9MqqMc9n1nHC4oTDugPCRT5KwvKxhh9bbKlU1sA1bLHNjgGsOCMCFXtbEZ0L9brDRBiBYooFXTLMMT77tuOLrJvlZQgYAq2PQGuRbA0vVbVh1GlYY8ASlV9DFe5HkoFcawFNagsTUJvn2cPrqEdFKEKiRA2PjmrEL3YKYM8rzACYBba2NjWYtr+pIYSK7RhShoQxJRBflUArlgwBQ+D6IdCSJKuPQSe3HDUjBJ36+ARMhdXsrDVPgnf52CBvCJNtVQhUA88Tuo+g1pAsXhCE4+M4cVp9gvV3ceB+/GctGQKGwPVEoHVJtv55eLK1/silfsaljNimhyVCICrD+sR/2EV2zBAwBK4tAqeeHUK9WTqIwPk8GA7mZt8NAUPg/UHg1CT7/jTdWmIIGAKGwLtHwEj23WNsJRgChsA1RsBI9ho/fGu6IWAIvHsEjGTfPcZWgiFgCFxjBIxkr/HDt6YbAobA6RE47eS/kezpMbY7DAFDwBA4MQJGsieGyi40BAwBQ+D0CBjJnh4zu8MQMAQMgRMjYCR7YqjsQkPAEDAETo+AkezpMbM7DAFDwBA4MQJGsieGyi40BAwBQ+D0CDQ1QAzhC9my5f1JxDCw2A6Nn+flYEQQ9dO62jSut519twhc3N8FMaa90KetEVOkqSTLQ+PH8L4kftTvU3ve1XMhxtBl4HQZZbwrjK5bvhf521FKaSFaaSrJ6g4I8p5ZLDwGuW6/kdZqrz2D1noeJ63Ne/rc3jOGO+nTfIfXvUfK/B2i9G6ztmfwbvF9V7m/p8/NSPZd/cFYvoaAIWAIiLxvY3V7poaAIWAItBYCpmRb63lYbQwBQ+A9Q8BI9j17oNYcQ8AQaC0EjGRb63lYbQwBQ+A9Q8BI9j17oNYcQ8AQaC0EjGRb63lYbQwBQ+A9Q8BI9j17oNYcQ8AQaC0EjGRb63lYbQwBQ+A9Q8BI9j17oNYcQ8AQaC0EjGRb63lYbQwBQ+A9Q8BI9j17oNYcQ8AQaC0EjGRb63lYbQwBQ+A9Q6CpoQ6PxLJa1WDeFbcsFQJ7u65IpfImCHNAJCD8F5SgE5RA0BHHcSTohAhUemS2dsIQMAQMgctGoOVItuq64pZL4rolJVdIlmPVauWtPQcgWY1HWw5oFHTXgWjD4oRCEgzRrOtNtm65LNlsVv+eUun0pQTJPu0fL8+0UChKOBzWzjSbyejzSyQSXmT702Zo1xsCLYhAa5FspSLlYkGKhZygYpVVAyLE8j24rQuHqrWtaypuVaQUkHKwKOFIVELVqDjhyIXCXSqVvIoEAkpYur0FYcyCrWdxcV1XCXZm5pXW9cbNWxKNRk+MR7nsjSDYWYBXMEiH5XVmJ87kBBcWCgXZ3NiQVCotZbcss69eSXdPrwQDAYknEi3ZMZygWXaJIfAWAi1Bsmw94ZaLUi4W9b1SKXukWhv6e2+NlGlAqvyruFIqFqRSrUi46kooHFWTwlstPuUXCGt9fU3+/NWfpFgoSDKVkkQ8IeFIROKJuExOTEpHZ5cqsXwuJ5AxajoWjUooHNbSUJVl11UTCPnR3lgsrgrOrw4mkVwuJ26lIk4wqCTjEziKlDwwiURjMX3376t/99VrLp+T7a0t+frPf5KQE5KhoWEJo+4DAaGOEFowEBRVjI6znwV1p63ffvONrK2uSP/AoMRiMYlEo5JKJWVwcEh6evuENvjtQI1Sr1AoLKViUSBOzlFP7vW3gHHdsmQyGalWqtruWDwu2WxOFhcWpK9/QDKZPfnjH/9TRkZG5Vdf/lrxReFaMgSuOgItQbKVclHJ0S0V1TSgJoJqVcnI35awEcXyEHzVVandh/ytVgMSCkfUrHDWBwX57WzvyE/3f5RIJCo3b94SSSSUxOZfv5bOji6BMNZW12RpcVG2tjYkGHBkdGxMxicnpFwqydLikrx+Pauqt1AsKNFN37gpo6NjkkgmlXxWV5Zlfm5OSbqtrU1u3LotoZAjG+vrsjA/L3t7e2p/npyckoHBIYnH4281aWd7W5aWFpW0ctmM5AsFefr4kXR0dGmeENzO7o68evFScrmsRCJhGRufkN7ePu04yKxcLsn29pY8efxI1tfXpaevT5yQI4V8Thbn5yQYdKS9o1NevnwhWxsben0q3SadXV2qRmn/0uKCdha9vb0yMjqqpIwZYHl5UVZXVvWZptNtMjE5KYV8XlZXVyWRTCnJzs3OKsa5XF47rbcaaF8MgSuKQNNJtuqWpVwqilssejvX1kiyWMQui6L1kq+I/O8H31F9qCnHCYpUXCkXfXoWCUdjBy8/8XdIu1QuyvbWjgwND8v4xKR0dnbJ82dP5cWzpwKBZPYyMvPqpTz46SeZnZ3RDuOLX30psXhMifXHH7+X//nv/y6dPd1KLJsbm/L3//hPqtaGh4eVnCHxhw8eSLlUFo6hGEulotz74Xt59eqlbGxuqo36N7/7vQQdR0aGR1Qx0xCU8eLignz37d/k5fPnki/kJRQKydrampIfndbKyrK8fPFCvv3bN7K7syOJRFy2t3fkww8/kompKa0n16FGc9mshBxHpqdvSFtbu6ysLGnbevsHtIP49q9/lRcvnikRcs3U9A3p6uqWhz/9JPfv/SBbW1vayXz2+S/ki1Ra6/a3b/4qK8vL4gQd6e/vl67ubr1/a2tT+nP9qn6LxaJ2SihjS4bA+4JAU0mWCS2G95Csbg1eI1iGzPl8TrANknyCfUOb3rRW/XcdDquNNKLXM4xFReKBAOEE8Dw4Y/LMGWUdQj+4f0/KZVeVVzDkKNFh7+zp7ZXpGzckGo2oal1cXFTSu3X7jqyurMjTp0/kX6f+u3RPdcvW5qaSLcq1q7NLFubnZGV5RbCdptNpfTHkfvH8mXz/3bdKYuOTU1LI5QXF+uzxY1WgiVBICRYzw8rKiqyvrcvU9LQ4TkhW11ZVAWOmAMt7P/4gL54/lyFU8PQNNccszs9LR0eHDI+O7ttssX8z5F9dXdF76Ox2drYlGo1JKpXSZ4JarbgVmbpxQyanp6V/YECisbiMjI2KW3FlfW1VlTcd0UcffyIQ6fz8nAwODEpvX7/09vVpG1HLuUxWiqWStsN/PP5z97/buyFwlRE4O/Oct9Vqhy3rRFcFMvVmtzTXKhNg5bIOc/EgiITDSpy+HRDSxe7Jd14oMLwNwmHcvN5UDKKtuCUl8RCTOMGzKiTPWEFZRSbmiiWtmzcr7iqxUCq2Y1RYJBJRIqXjGB4ekUqFrcJFh8i3bt1W0kJVMuSG0DAFUNcPPvxQCYv2MCG0trYq29vbet+Nm7dVRf7l6z/L0vLSfgfEtaqmM3uK0a07d5XAnj17qmobHDk/8+qVKsnf/+Hv1LaazWbk//33/6F1wRaL3dX3yMCm7ZZdKeQLgn0XmzDkT8L2jbrHlPDpZ5/LwOCgRCNRyeZyeh4zRFt7u2xtb6upAxNEJBxR+6//bGLRmKpx7Qhrbno187vmwX++PXr/gH0wBK4oAk0jWQjId9NCKR6VoDeUIuSFnREC5jOTKgwv83nffndIHihj9VgoqlsXQ9UzpapHkgyJIbFkIinM3D9/9kwJCGWKueDFi+dKZEyQoc4CQSbkRMKRsKTb2qW7p1tJKZFMyOvZWR3WQ4KQDcTc3t4uHR2dqnKXFxelVCprO9vbO6Snp0fbiyrPZDP7yg+S1cmmsqt2VuydXV1d0tW9IdFIRDuhXD6vJgAwZ5je3dsroa2QEp3rVtQs4z0DautNTGFnvfvBhxIKh9TOi8kDey0TZvFYXM0DQ8Mjgv0Y88LG+po8ffJY5l6/1jpndnf1uVG/ru4emZiYUnMCChnS7ujsVIcRHv1h9nbus2QItCIC/sj6pHVrmv8RngC+/+txlaVR+kKv+p9r7969h/1MvTPMZjN5BdmeJ0FCeBRgo4SA8A5QVVsoKPkwORWPJ2R6+qbOlqPu8AHlPlQZqhdFB5kygQazcI72MPQuFPI6YUSn4XsocI7vDPdRnru7O6qa6WR85Ye7k3oxBAJqw8Wmyj2oV/IBGUYCXAOFZjNZPQcxUy5lMKGlCHocqzBRTxRpd3ePqljywzOBCzGTRKKR/c5vZ2dHVTOmDEwKIyMjaoYgb7Ikn8mpKbl9964kk0nv2p1t9QKhMC22KqqQPbI/z5Oyew2Bd48AZraTpiYq2YpUqm7DevKD4wVZeKYBVJ93rKDuXvhz1jHDoblxvUfoakvw2enQa39+EPJBvTmhsE4YoV7xJthYW5NkKq2qDebBjtyWSquyY7jNDD71htwhOUirfggMUZIgX1zBaMfTp0/VrhqPx9TrAEWKyxi2W1+1Q1zYNXHNIjEJhisW6hpVyCQZKh9PA9RgMpkSFiMw0w+GL18+l42NNf3MCAElSh3IF+b26hiQ3d1dVaZcw0RWR3unoJIxy6Cm60cFmASwC2MLTqXjOjG4ubkpge1t9Xkt0oFks9LZ2Sl7u7tqCqEuTFSilCF5qFY7A+znp3xGCoT9Zwi0KAJNI1nI56TqkiE1PzyIDCZRtVPyVoQx1G6UoGDugXBQz6edAMMmrBNbPb1qv3z44Cf9DjlNTEyqFwB5M5zHRWl1eVnNAyhefEVRbum2NvVVxcEeUoTUOE/CFjo4NCyQ0rOnj5XE+vsH5Isvv9RJLMhrbX1d5ufnVb3evHVbbty4qaTN/eCCO1dff58sL/XoZBkXxmJRHaYPDAwoUX/8yWdaJg7/mDYod3RsXG3G1IcE8VNn2ra2uir3793TtiaScbl9944MjYzoNZg0IG6/04B8x8bG1csC0wkdAPXq7e+XcDiivrfPnj2RnZ1dnYzsHxyURCKpZE1e1B/N29ffrwR9sEPSytl/hsAVRaB5JFuzlzbCzVc0ulSWlVW1WWgdfodCUkZB1pz7j8yHcpRnUc4VOa1VFtXW3tkpX/zqVzqRUywVVYHhB4ovbHdPj5oj8CKIRePqi4pii8aiSrBMEGGD/MPf/4P09fV75JhKyeTkpFTFI0iG13QckB2Ktbu7W4kOjwXMEs+ePlWTBOcnp6ZleGRkf6ED7aaO+M6inJlQg/RRwePjnrtZOpWWVDKlw36U+W5mV9Xu7dt3BMLbV9WhkJIcrlf4z+Iji9pkaHTz1i3tUCiLtqKe+UxiUgwvA54FbmOco64cp5Oh/dhlyQuTysDQkHR1d2mHQqdBB4UZ4otf/VpttZC8X6cjn6udMASuCAKBqsrCN7XlKz9Sf3Yf+x6O7AwfZ2Zm5Msvv9QfhU+Ab+483adCZk9KhezPhvuUD1lg5+MdQsXOx49O7Yi1iS/UD4SE0qOu/Kg5hquR+srWVwcCiyUkwmopVoGdMlEnHOcpB6LGfADBYOdUoqlWdaILrPDtRb3hZ0rwGoiFiTBm5BnG++qPITbMwv3kr+aAXE4/cwzVSzsokzYyQcVKMPLANnww+XlwrTf09lzZUM4ocdKbvMpaDwgP3OoTowtwVlNHTSmzKAI7sk981JV2aNtrN/M3Q/spg3rSdswHqFKOYVcuFUuq5GkDx0m42dGJksDJV/rn/fvSDO0/Q+CCEeB3try8LA8fPlQe9IWE/zfNb4LfRv3fb9OULMpFh/JIK/3wczRokEcekG1ZlRK2S455hOa5bx1x+9sZUs4ZbX0Ahh32yBQIKGlAHNStHmDuOexeyNdPXA8R+mToH+ed69LpN9fWn6v/3CgP/zr+AHxXLP/YwXfMI9T3sDr71/oE6X/nnT8sFOxhiXKJT3AYNvUdRqMyD8vXjhkCVwGBppGsx3kB/eEdBxQrn+qJy4t8WFHFjYLSGZ8GmXCv/jsjyTbI+men6uv5s5PX/IBhc83/AK5p85tGsqKSOigBeTuE4WHPAaXqkTIy3HN9QhXtxyk47KbaMciVm1BoDPMtGQKGgCFwmQg0jWQZXvJS99UG433INKyxYr0pK1WlNUWK3RD7YMOksb0py8HfqeGldtIQMAQMgYtGoGnSDmUZUF9RNGrjxIQLLwiXF4kJG38ipuHdqmK9SaiG19lJQ8AQMATeAQLNU7IBp7bSKKjr4Y+c/VL3q2pthjqvEECw9TPbjXEJ6Cz32eMWNM7dzhoChoAh0AiBppEsKpZVVE6oJNUyCwUOtxl46pUmeK5lmAsQs76q9ZXtUY1kZVIowmqrs5sKcEFibb7vVsbiAfw/CZJNCEGWnOIF0NvfJ8QZwITB9bi9ERaRxQiHeQ4cVWc7bggYAu8PAk0jWSBk40O2i2G5APt6+SvAAgFvrb/CHCC6Fr6kBIrx1tr75gPULOQFPfvmA9/4ABnjc+lEaqr3jJ4F+HES7JrQhZk9L9IV9WS5K/XY3FjXKFqQLL6hdBbYmomexeovvB/wMzWSfX9+NNYSQ+A0CDSVZLHLhqIxJVkUqVv19tGClFCKvkqFtEis6ScpgdaCruAEXH/Mnxgj73AkJmEc8c+hYglDSLBpgmJTp86OTnn+9ImSfndvj65gIj4AZLy8vCQ721syODQibqksxFfwgqakdYsaraj9ZwgYAtcKgaaSrCJNbNhwRHx3e1/RHjap5ZMt93lmA0811j8xlCymgRB7bEUiEnD8nOuvOvlnltGyEikei2mAE0j2cbkk2b2MRGJRjVLFOn4CnywszGsglNGxCUm1pSWd2VNV6y3sPXmZdqUhYAi8Pwg0n2RrZgOtiK6WCupOtQR+USVb8yY4DHKI1k/6uRa2j329QpGoBOtWVfnXnfqdUInqZxbQwCcsmSVEYAnzhuuqycAzVYTU3EGdfTMGS3yJ4fqmlqcu3W4wBAyBK45AS5AsGKp9Nsaa95C4hDYsFzXwSkUar+jyiLZmfyUEHwQbCp862tZRz5EgKUyeZTN7srsb19gBkG44FJZINKbr/DEJsDMAZMsyUVXZSs61nRvcxpHCjirbjhsChsDVR6BlSBYomfBChTLcd8Ihj2QrrrA9DYoQQ6gvbAlWjYcCk1u4Z+kkl35n6+uLc/8lUEu6vU3c2YruEMDuAB1dnZKMJzXc3/ramgbQwbzR09uj0abwKph7PSuzr16KsDtCtapRseLJpJoPrv6fjbXAEDAETopAS5GsVpohP5FspDb8Zpsah9ixXsBudSXgmn2S9bZRgaDPGgCmEViEGmQbbDb/29naUu+BkZFR3SaGMtktgIDU7BRAOL+enl7Z3tnWHQyYfCPCFMqWDQ3Ve6I2ideoTDtnCBgC7w8CrUeyddjqqjANm+et9tqXsVwDyb4jYq2rgipP4psSQxVCJeRge0eHBsXGXYuNA4kIhh2WbVYgZUwMbDUzNDSsMRPwStDQhbWQfvX522dDwBB4vxFoaZLdhz7gBYbZ/37JHzAFsKhA2PuPnXHr1GhPb9++q5lnHxaN+k/kf98FzT9+ydW24gwBQ6AFELgaJNsCQPlVqCfY/WN1Xg7+Md6NXOvRsM+GwPVE4OJmiK4nftZqQ8AQMAQaImAk2xAeO2kIGAKGwPkQMJI9H352tyFgCBgCDREwkm0Ij500BAwBQ+B8CJyaZG0y53yA292GgCFwvRA4FcmePFD29QLRWmsIGAKGwFEInIpkj8rEjhsChoAhYAgcjoCR7OG42FFDwBAwBC4EASPZC4HRMjEEDAFD4HAEjGQPx8WOGgKGgCHwMwT8pfI/O9HgQGssq/XjFzaoqJ26wgiw7LhFnzH7w1lQ9av3t9XwuR2xzL1ZrWwiyVa9eLEa0PrwnWqbBcqlldvC5HNhGFyHNl4YWJbRiRFo8HfFNlXEmD4szsiJ87/AC5tIsgENzo3fbYuKnAuE+YisaHjQdNQR6NhhQ+BoBBr8doL8plpIzTaRZP2YsI4N147+U7IzhoAhcMURsImvK/4ArfqGgCHQ2ggYybb287HaGQKGwBVHwEj2ij9Aq74hYAi0NgJGsq39fKx2hoAhcMURMJK94g/Qqm8IGAKtjYCRbGs/H6udIWAIXHEEjGSv+AO06hsChkBrI2Ak29rPx2pnCBgCVxwBI9kr/gCt+oaAIdDaCBjJtvbzsdoZAobAFUfASPaKP0CrviFgCLQ2Akayrf18rHaGgCFwxREwkr3iD9CqbwgYAq2NQHOjcJ0Im6pUK7wqIlIVP/JsQAISCAYkEAi2VFizEzXJLjIEDIFrg0BLk2zVLYvruuKWilIpl6VShWi9UPbBQFCCjiNBJyxOKCTBEE2x2KzX5i/XGmoIXBEEWo5kq9WKR6g1gq24rlTc8hslW9t3ohoIiFtxJVgui1uGbEN1L+edws8+P7yIwH6SVCwWpVgsSCwWl5B2Bie562TX1O85RAD0y0iZzJ5kszkpl0rS2dUlsVjsTMXybIulkoTDYXGcd/vMzlRBu8kQuAAEWopkIVO3XBK3WNT3SqUikO7P9vOpilSIjF6pCNo2UPZ2WUDZOuGIOCHUbfjCzQi5XE72dncll8sq9NFoVNo7OpQ8j3oWKPGNjXVZWV6WoeER6eholxB1O0cql8uyu7MjuXxOSqUShhMJOkGJRqLS0dkh4XDkHLk3vpXyVlZWZG11TTuOSalKb2+fEmXjO98+S+eQyWZkY31Dibqtre3tC+ybIfCeINAyJFspl6RYQB0VpVrb98tXacfpM66rVFx9ld2yklgY1RiGzE6mNo97npDlqxcv5Pvv/iavZ2eV+IeGh+U3v/u9TE1NH6nECoWCPH30SL7+81fyT//yrxK9dVvSbecjWUj7r3/5WmZnXsnW1paEQo4kEkkZGhqW3/7uDzIwOHhcc858nvbMvHopiwsLQicYjUSUYLu7e06s7Cm8XPbI+v69H+WDDz4SI9kzPxK7scURaAmShWBLxYISLENIJrkgTp3kOuEGYAyVdbhcrYqLtisUFPpQKHIuRQuRbG1tyk/37sna2qoq6IHBISWWzq5OVY+FfF4ymYxsbW7I3l5GTcOou97eXiWiMsPiYlGH16urKzIz80p6enoknW7TqTzupb09Pb2yt7crayursru7I7F4XK/r6OiUcOSNOs3sZeT5s2eSy2YklUpJR2enpJMp6erplUgkIijdzN6eLC8vyd7enuIyODQkXV3dumvs2tqarK2viVsqSywWlbb2doEk6UhW11ZVHRcLBclls6rUqReKHSyy2YxsbmzK1uamblQHyffs7UlbW7uWubOzowSazWY1v+7ubn3HxEC9yWd0dEyVLSdsDAAAIABJREFUd8WtSLnk2d25ns5jZ3tbKBvTSldPt3S0d8j6+pp2JuDkBINa3+GRUWEkcVkmkhb/HVv1WhiBppMspFoqQUAFqUKwNXsnw1LPXOD7ExyNIj807KPYO3mvVlwlbObBUMGYEM46KYZyY6j/pz/+p7Sl2+XDjz/W4XEsHhPHCUlnZ6eUymXZ3t6SpcVFWVldlXwuK8MjI7obb7q9TevEcJ60vb0tr148l52dQYE83bIrmCGisaikkimBbObn52VleVE9J7q6uuTDTz6R/v6BfQDAa3NjXdXrwMCgKljIK93WJvFEXE0aqNy5uddKshBvPB5X4srs7sqLFy9kfu61OCFHSSuZTMmdDz5Qcn386JHXMZRLSnjptnYZGR2VDz/6WLKZjMy9fq3mEuyokWhUzRabmxvS3dMjCwvz8vr1rNrQ6WwK+YIkk0kdUTDSWFpalL6+folEokK72PAODxHs1Ssry/LowQPZ3duVkONoB4T5JxFPyNrqqmK7s7Mtu7u72qlAsJA/HZElQ6CVEWgqyaJYy4W8lIsFcd2yqiy2rkVRQTwQLQni1YRarf/uHdSNKfnRR2MxHb4qUUO0xQJeX96uuM7ZmprP5WRzY0PW19aUIG7duatD2zATWIGAmgkgCRTl+MSEqiyISofymxvy+S9/Jai7hbl5JVBIAZvp7MyskgrtHBwalps3bynhYFft6++XcDgkD366L1//+Y+SbksrIUMsJK99Vcns7crqysq+moPQgAoy++7bv6mtE9UIAaNUKeunn+7rPWA/PjEpL148kx9++EE9NNxKRR48uK+EDoF1djry8uULmXs9KyPDI/LyxQv55pu/Sld3l0xMTkp7e4fcv/eDzLwKyMjIqHZGs69eKfElEgmt57/92/+j5pRfffkbcYIrqkhfPH8qkciHqu431tZkIR7XOmMCGRufkE8//1xi2Lvb27ReqVRahkdCMuZMyP/+X/9TXjx/rp0bz9xIVv8k7L8WRuBiDJZnbCBmAreMDbZGsLV8IBGGvJAs7yTUKsSAuiX5M/soJK6BmD0zg55WwuY7E2nY//h8loSN1/MOKOoPHtshs+kM3/mRq3KuVvUaVBbDaIb6S0tLMjMzK/lcXoe/KDRm49PptIyNj6sqfPXypWysr+sQv6u7WwmbtmAGYFjOMHnm1Yxsbm5qHn79dYgcYN6voqMAhtfcp50RE0qZjGASgASnpqe1PIgWjBbm57XO45OTwgsypeNCjaKOyaujo0PGxydkdGxc85+dnVGljjKGIFG+nGMij73tKQ+zBHUmYQoZHh7R4T7Df/ycsV/TmYAddaNjqlSqapIAA0wQeBhw77jmPSyoaFKpXFL1zCgAcwqKlk4vm8vpefvPEGhlBM4m7y6gRZgGUK/qnuUr1UPyhVBQqNjiCsWikifE5tseOYbJ4bAE6UBEbqmkQ3sI4bSJsnhB+MVCXjAf+IrSzwvb5cLCguxsbalqRf0y7C9hb6y8Xbd4IqnDfHx+ISYILZVM6rCaMjA5MOTmM2VxXbFYUqLxy/PIVFTFYWft7etT1Yp6hKi0za6r5oPunl49psQsVSVC3K4wAWDqoNNo7+hUDCkzHourOWRoeEh2d/e0Y9H25LLaeeBdQX0h7Vg0pi/qiF2aclHTkG9be5ugjLHVci31xE7MM9/a3lbbNuYCxii5fF7i8YBgv8XskEqnax0OJosdNVHQCUTCEcGOGw6F9W+BTsOSIdDqCDSNZFGg+zZYb4rrZ1hBDLwi4bDaW/kR88L2iiKChFBw/PCOTJgfyth3o2fyM2D4zpCUCRqU1Mb6mto36/06t7e25PnTpzqrf+v2bb0e4kDZ+gra85CoqXHszpWqqkRsuShBhvKFYkEnq1Bpt27fUQX70/17OjlGu+sTrm0oVYb8mCmU9GoeFZAPdltsmvV+uZ6pxXOLIz/HCWre5XJRyZzORIfgsZjabyF3OjeuhdjJV/GuVvW5cL1nyAmo3dUJOkrK8URC749Ewtoh0SnRKWLDxeNDManrWGmLWy57nYrrKsGSdz5fkMXFBfnh++/0ef/DP/0XKZaKsr6+7pmNDmBSj499NgRaBYGmkSyTU+pJcPy8lioigUwh2Zo6Zcbe//Gr4fUIRPFRoCxe3nUe3R1x+c8Oo6K7e7rl1p07ShRPnzyRbCYriWRSyQA1yLCVYWy53KskA1EpqUTCOpyGkJVcpFrzmV1R8pmYnFJiyeayqmBjibgqQgiXhHsUE1bc71mjverR8ZAf+DFEx+bruhUlIvV4iEbVLLGytCiPHkaV3JhkA2rsvZg/8E7I5/NqRwVHFCfEv7ez4y1VrploIGnaEgqF1SY9Nj6pw3Xc2XAbQ/22pdskHk+oCQVSDtY6R1blMcnlEz2TXJCnticQVKIGKyYUsUFjypifm5NnT59ombTJt4ljZsFVTc00kcg+Ef/sgdkBQ6DFEGgaySph7hPf4aignnjxQ3ZZ4VXzPiihpHwVewI1Qx4oZ0iJlWGnSZAA7lj/8E//LIsL82oLhKQgHjUbTE3pD39wcEjV2OL8vA6LmQjDNQryQWWOjo1JMpVUW+zi4ryq3ukbN1TB0i7MC7gsYZtdmJ9T1QwpTk5OqRuTT1TUHWWNfbNULMrqKi5XZcFU0N7eLng9MHM/feOmku/DBz/ppByEjsvY7TsfCDZW3LtoB0SLS9rI6Jjiy7FEPK5kSNt7evskk82qGeDGzVtK2JhH8JOlLMivf3BQUK+0l46Mjol76YiYEOvq7vEUbjyhZM6zBzuUNKYO7Ld0GihUOo3nz55KLJ5Q8wFqfWxsXBU0uFA2Ixvc1vDIsGQItDoCp2OcC2yNR6BvD4EPZq92RFQbK7lqtkbu4zM/YlK5jEJtkE/N35YhKveeJTHRc/vOXenp7dXJoWAwpMPocCSsdk/UWeiTT9SkAIFgh4U4IUZsjKFwSEkIoqUe3MeEE7PmdCAQByoPuyXtgqx4x256+/YdNQdAYn7q6uyS3/z2d+oixX0QPkowFvOG6RDYJ598Jts72zrZFolG1LSAixcEjd0U0wc2TpQ+eOJH6ynaNvVE8Enys89/oZNnuF7xPGjP9tam2laJGYHCpb50KhMTk1Io5L12qDudI//4z/8sHZ1d2gn09fWpPRczDyQJFp9+9rnWjTrgUYA5ArVKm7AX00n99vd/0A4hlUoKNmbanE61SUdHlw+JvRsCLYtAoHqAefjKj40/dggApYPNEPsi/pu//OUvVWEoAZ6jWYXMnhQLWR2i1g/3KZ9yGQLzDoHxA+ZHqBNB2BJDIYnHYvrDY2itP8xwWIfW0Sj+qwcmuKpVYQVYJBYXJ3x+9eNDdl4MzgGf3WoIGAJNQADxxOjx4cOHtQVFaRUtzBF5ZjXPV7+eG5qmZHXmApB0NuZwtCAzXvlCXu2Eng3X6wT4jM2ODuF4fcqqhNqKsMOLOtXRegBPdaNdbAgYAtcOgaaRrMaDxff1BEN4lCpxY/0pK4jVf+n9x+XhEyyxZy0ZAoaAIXCJCDSNZCXI7DKz5scrUZ+QmbVG+vLmq1zItnHyVawjzHZbMgQMAUPgMhFoGslia8WPs1Ip1Ztkf9Z2yJQJJGyyECpDdV7YZVmdhI2kUYKQA45XFsRuyRAwBAyBy0SgaayjJBtEyR5fBa5FwUKomA4gXvXHPAFpQsh4A3h5XCa0VpYhYAgYAiLNU7I1t6yyDuEZ8h89feWZBrxwgdgKuJKZvBOlQFBVbzB4vsj7kDurklgMQdkoaxJ+pZA/S0QJ/AKZs3QU1zKUNyqcl02Wnehp2UWGwHuHQNNIVtijix0MWGbJljN1a/x9kwBoQ7D174c9Af+ag0SGLReTBH6XgXNsb4Lv5/zrOV1Sy3Ypk1NT6tsJuXqBszd1Geno+LjGIiBsH7sHsFZ/aHBIevv6a476h9XejhkChsD7jEDzSJZIWkqAUXWIFwK91IgWNYjfGXZXYvd5Cw+8sIJwLssrUYckiBWSZcUQ1/vbXOGNwPdQJHrqVV71DxyC3djYkJXaCinKYWeE1fiq1pEtYIgmhQ8vcU8JlEKdiHlQDBc04hQk762Gqs/ZPhsChsB1QKCpJAsjOqxWwsMAf9eyt2+XkixBpmt+st623yLVimcigMS4BhL1zQb+MR6afg6FJByNKcmims+aWIhBKD4WY7R3tEtnZ5cQtIWFEiwJ7erqkVRvSkmW4DG7O9syNX1TBgYSujji1auXqmjPWr7dZwgYAlcbgeaSrGIX0FVYYbxgCwHd/pvoXE4Qd62gqlRIk8QOtST/u4OK9aWrd0J9aTFDRGIxCYWjEjinLZb4AOViUXccIMhKW3uHTr5Buiy3HR6Oa8wAVqgRQJsYBKhs1DX3hh1v6alW3P4zBAyBa4dAC5AspBmUUDgigaoIE2GEJsROq7bWmh/sUdNiEK7/kiBbgxPxKnIhBMtfg/rmBgJKmITZww6rrmQaODygJg5ULYHBUddEskL9slULCph4AbwsGQKGwPVEoCVIFuiVaCNRnaAKlkI6Q8+OCZUAYQqrapvdX/JVU7OqaDEdsBoMglW7bPjMAboP+xPwg5UQzpBtaCgTmzDEmUimarFgsxpYm00J8WLAbEBMWCL4E7lKo3UdlrkdMwQMgfcegZYhWUVaFxmwpYsjIZRsLZpVhU0VIVx/+WwAQ4K3wCBItCfH8fbxYhXZOc0DB584MVPbOzvUBIA5gK1gevr6Nfwg5En8U3azJdIVsVbZDPHli+capzWX90wH2I3ZjcCSIWAIXD8EWotka/izTYwuUnBY6VURN8hqL28nW71Ed6H1toUhPux53LOOe+RE8yemKRsSQrCYCkbGxpRkMWcQpYxda2PxqG4BTgxV9rUivCG+tRAxgastGQKGwPVEoCVJ9q1HgRdBJCqOqth6y6wXk+Cta9/RFwJiE/R6cLigpguIlMDRkGx4+oZu9cLiBGK+Muk1feuWxnHlPOYFdjewZAgYAtcTgdYnWf+5qBeB513gH7qsd+zFECuvg+mwSS12C7BkCBgChgAInN2B1PAzBAwBQ8AQOBYBI9ljIbILDAFDwBA4OwJGsmfHzu40BAwBQ+BYBIxkj4XILjAEDAFD4OwIGMmeHTu70xAwBAyBYxEwkj0WIrvAEDAEDIGzI2Ake3bs7E5DwBAwBI5FwEj2WIjsAkPAEDAEzo6AkezZsbM7DQFDwBA4FgEj2WMhsgsMAUPAEDg7AkayZ8fO7jQEDAFD4FgEjGSPhcguMAQMAUPg7Ag0N0CMv/tBfXCts7flnd9JRC3dreEdlnQZZZyk+q1Sj5PU1a45OQLX4rkG2S2ldfRjU0kWwiI+KzvSSv22Byf/m7mUK/1txGo74VxKma1SCG33Qzb6MdNbpW5Wj7Mh4D3Ts93b2nd5ao1Y1AH2CPR/uE2udFNJll6VfbE8km0yEgeK98V1fXDFd/3MWrWr4TlpqgOj7uMB5OzrlUBAA99fiZqeopL+32nwnWm2s4xkm0qybNXt/35PgeSlXNoMEmlGmacBs9Xrd5q2XPdr7Vle3l9A6xguLq/NVpIhYAgYApeGgJHspUFtBRkChsB1RMBI9jo+dWuzIWAIXBoCRrKXBrUVZAgYAtcRASPZ6/jUrc2GgCFwaQgYyV4a1FaQIWAIXEcEjGSv41O3NhsChsClIWAke2lQW0GGgCFwHREwkr2OT93abAgYApeGwKlINh6PX1rFrCBDwBAwBN4HBE5Fsu9Dg60NhoAhYAhcJgLNjV1w2pbWh4HSxde2Avu0ENr1hoAhcLkItDjJVqVacaXiVqRaqbyJ5aoRhAISCBLSLOhF8mqh+JGX+witNEPAEGhlBFqXZKtVccslKZeL4paKUimXpVKtxZ4lRGIgKEEnLE4oJKGw9y7B1m1OK/8RWN0MAUPg3SHQcqxUdUvilsveyy1LxXWlyg4K+xGziSJNCNqKuFKSSsVVMg46jgRDYXGckBIvYRQvMhFc3H85lIWKboE4jaVSSXZ2diQcDksymRTqdlQiFmY2k9ERAZ1TPBZrmcDGR9XZjhsCVx2B1iFZVa5FKZdKnnKtuPsmgsOCWWtQbUwIAgEHxK24EoSUQ2GpViLihMMSCB5NOCd+cNWqZLJZef16VjJ7e0q0eFmk0m3S0dEuqVRaQqHmwAhp7u3uyvNnTyWVSsnY2LgkkknPfHJIAwv5vMzNz0nVreh1A4ODEolEDrnSDhkChsBFIdAcdjhY+2pVyqWiFPNZKZdLIqhWVGJtouu46S2NVo7tVlUtRFuWkMQkHI6em2hd15W11RX59//xb7K4sCABCUhnV7eMjo3JjZs3ZfrGTeno6NhvEXXx5uTerrXWcf8qmvf2eU751xx2ru7W/Y/lclk2Njbk++++ld7ePuno6JRwJCLRaFSx29/doVZWJpuRJ48eCvf1dPdKe3u7KuDDyjuqHfuF2wdDwBA4EQItQLIewZYKeTURqFmAvb/UTFDFMnBsgq4giiD7+khAXLcski9IoCoSipyPaN1KRfL5vKwsr0gsGpObt25LR2en5PI5efTwgXR2dkksGpW1tTVZWVmW7a1N7RuGh0dkZHREPy8uLsrMq5eSbmtT5ZnP5WRyelqGR0YklUzJ5uamLC0tytraqpJ4MpWUZDIlXV3dWtbc69fiOEGZmJyS3d1d2dzYkPX1Nent7a31RR5K1PPx44eSy9BZlSWXzQpmlK6uLhkdn5BKpSqYF9ZWV2VlaUW2tjdV0VLW9I0bkk6nZW93T+Zez8rGxqbuk8S9vX190tfX3zTFfuwfgF1gCLQwAiciWQjsMLVz/nZVxS2VpFwqqILdJ9hKRYrFoqAiSb7Cq1e3B8tmyO6/uB67rlfngISi0TPvXkle2GIZaofTaYnFYlq3ne1tJbESk3KVipSKRSkWCkqCW5ubkstlpVDISWdXjzx5/Ej+43/9f/LRJ59KyHFkZ2db9yCCAEdHRmVu7rUO+dlhE9EJidKW4nhR4om4EnQ4EpbxiUkl6Xm9/pl88NFHSoy5TEYKhbyW+fzJE9lYX5dQOCKxWFRhWliYE4i7o6NLsdzb25NcLiepdEpWV1eVeOko2js6ZHl5SdZX1/R80AnKyvKS1u/LL38jXd3dDW2+B5+JfTcEDAGRI2eHfFL1398FWKjVUqEg5WJRqqjPmm5FPUICmUxGX9lsVnihzPzP/jvX6LlcTtWbEnK1qhNjeCaUiwVVxX7eZ2kHOhEi3Vxfl8ePHsn/+c//kOfPn0ksHtfhNpNOqNup6Rty6/YdJb6F+Xn52zffyNbmhszOzMiL58/Uxjw6OiYjI6OyvbWtx2knShW1Ozk5KePjk6paV1ZWVK1io15dWVGlzGQfCnp9fV1ez87K9taWkj/EuLG+pljNz89rXqVySeszMjqq125tbal3Bu5wdEChkCM3bt5SW+7C3JzMzc3J86dP5cH9+2rTRdnSnuWlRfk///G/hfaAvyVDwBA4HQINlaxPsLz7n0+XfYOrUYi4ZZVL6gv71pUoUdfVF+VCYszm+8qWYyg9vjMs9mb9q1JRcvVzwseWfMo6kabeAGecCMPsQNIZ/FRyfydMykZxQ5RbW5uyubEpq6vL3nB8dUVVXz5f0HtRvt09PTIyNiZt2+2yc/+e7O5sS7GIii/rtZwPOSHJ5rI6XKcTok2oZVQlCbUP8RbonMAIlV0oSJEJw7Kr9cHDoLu7R5jY2t3ZFakGpFQsSbFQ1OfY1t4uyWRCzRXZzJ6qc+3U9vaUuG/fviMTE5OadzyeEMwbm5sb2pml0mmth/1nCBgCJ0OgIcmShU+wunX3yfI80VU6SYU3AF4E9Su5anf7pM47EzkQB4QGoTLMZngLsahpwHV1mP3zqSRMDSi3kji4d52RZH0c2js7Vf0xI4/SZEIMJY199MWL56oqsYti+4Q4S7UOgPqjdNva2vRFfrQHRYnvL7ZkyJWOIxKJSjwWV6UZDDriqCuaNwkITBApHQdmBSbh/LrpZ91qPiDRWEwnwWKxuORzeYlGI4oTk4os3qAenZ2dkkgmJJlKqa0Y47GaaCquRKMxPY4aJq9QKKzt8Ts5LdT+MwQMgRMh0JBkITjI1X+RIyQHkZw3WAwruaqVsjSa2vIJHp9OSClYxqQg4gSDSkjUpagkVDm6sTqJVq7zsz360qPOVAOiShIVNzg0pJNdgWBA7ZXYaiHZ1zMz6nEwOjauxLSX2ROG6LiYQcpKVrVFE5Ap92MdgUjpKFQVF+hEqpLP55Sg4VAWWoADBAfukHoun9djkLOPkf/uTf4FBRsunRHlgB8JZR/UUUBYItGYYkpdUOi+swOLPOgcKItJMr9jw2uBay0ZAobA6RA49Ffj/2D9dwiOH9jz58+VOG7fvi03btzQH+npintztQ6FXVZwvTl22CdOMzzmeogGYoWU+PFDTFVWgTXIxLenopi96w7Tu4eV7B0DA0gdhQmhLi0uChNHDMMTiYQwnIbI8NOFmLAPozYhLs6zOAIG4zomvXxMUYckcE3EE1q3Z8+eaoe2sbGuJgAmwiDIWDwm25tb8sN338ri0qJgeiD/UDjkqfpYTImc50Q9KYN8IVQ6yEhtJMBn7uOd85p/7Z5wOCK8wGh9bVV++P47rR/YDwwNqicDk3CWDAFD4HQI/Ixk+YFCYj4Z8IP0SRZyvXfv3n4J5yFayoAwGxIk9ahd51/vv0O4LjENDjE17FeQD9hpawocog5CeqdItD+RTMnU9LTaRnd3dySbzShRjU9MqHsTJMvMP4SEbZY64fIEQeKLOjw8JHfvfiDYQsOQZiwmfX19Sr6YEvoHh9QOm8nsaUeCpwL4+4p9cHBI82RyDPssebZ3tKuiZhECvrq9ff2aP5Nq3Ks+sJGwxBNJ9WDAc4DRB/60dAjpdJsSLW5lQ8PDOlmHeaFYKsrWxoZOtjE51j8wIDfSt6R/YFA7ilNAZ5caAoYAQuooFPihQjD1JAsx3L17Vx48eKC3QSY3b948k6JVclQVelQNPHswKtBXX1wJMUP62A2DQdy8sOseJ4c9bwNP9R5d3mFnUHzd3d3yh7/7B7Xt8p1hPAoVE0BXZ5d+/+ijj3V4TV08te3VkxVh2ED7+wcFsvTtyzdv39biWAo7Nj6uCxoYnhfyTKJtycuXL9REQXn45mKmQLmTtAMMBqW7q1vNAn/39/+oaretvUNVMVo93d6upIqt97PPfyHp9jbFbDoUUtMJw3+P7PsFclVlHArpRFt2b08KxYLaih0nrHlD2uBuyRAwBE6HwKEkC7FCFKqmHEd/XPwIIQiIFhX56NGjfRWJolXyOU3ZxB/whGbDuyAMJfy6obZH/EEpl/2hf2OS9Qgdom183VEVYdh/89ato07r8YHBxkPpgcGh/fsjjqNK1z/AijF/1Rj2WHxX9zIZSSa8JbIsBuB1VLpRVzcIvT458ZB6NPjHINb6hJ35oMcAnYolQ8AQuBgEDiVZsvaVLMQEgfIO8UKw/f39+v3x48f7xHUmotWCjrYYUCYv7K9MeqHkPJXokaX//TgoaAuKWN+Pu7jJ51HI6VRKJ9F4t2QIGAJXG4EjSZZm+UTLMBGyY5bcJzmIls9PnjzZR+A0RIsd03NBauRf4GUNyVIXfEaxsfpkz9BciXi/Bkd8qBHsVSBZOrRkKi3Dw46Ea5NjR7TKDhsChsAVQOBIkvUJqZ5oMRlAaiTeBwcHlfwwHfjppETLpBAuRm65gftVTeT6RKrGgaDnlO8tPKhNfB1jBtA2EH+2dq9f11Z8p67gHA63t2L1rE6GgCFwSgSOJFny8Qn2YJ5KejViGxgYUMI9renACUclHMUlqyxVt4GtFHNFOCJOyFEVS52YeOJdVzEViwer99Z3rtOYAEzaBGzi5i1w7IshYAicCoGzTP42JFlK90jK8zSAXCnkYAxSFC0JovXVLl4Hx02GhWMJXfFVzGX3FfJhLVYHe11eWqJGuhqKOrhBL4DMYff4xyBYFDNO9pYMAUPAELhsBI4lWSqk6lFYnfRzovLP1ROtf91JiDaaSKtLEaEOIfHDk+e7q7bZoLcjgU/+h19fdxR/U8czTdQdPdVH6oV/KosMUNGRcESJ2z9O0BWWq9LB0AlhM8Ydi2WzmEXobM7SA56qknaxIWAItCQCJyZZn0z99/+/vXNrbhpJw3ATByfDhpyGSWDCUOxcUDs33HO64adTHO45VNiCIjssYSczDAUMOcImW087b6rpVWwllnx8VeW0JEuy+rH95HOr9bVqw7LkSNMBU9q9q4xop2fmMHkgotVUJNG4ThskpV4/WXXYmtuKwLvNKUumMG6d5W4upu8v/BAzcHFzA3dnkVyFi1QkeCEXALe+ku6Q5Css038171r17bl6yQRMYFQJlJKsKk+ESpSmSFXrU8kpol1dXY1PE8WRwq9T08H032Zj2+nu1ucY9XEbqpoltC9RIRe/iAqJGjkP5nl9tmGd7sFv3ZJ6NuaSZb+jJ3TSJUsE+v7du3hzAK9Fn9I///k8vhZDvXB3VhzNIdD7gRSNW2Hjt43Yhsw5/faft7ELWqfxt0qejjczARMYMgInkix1ywWbR7Zsk4uWdWVEO3Wu1S90Z/OvmHB6f791L33rNVpX3WlQ4J58fp4jPQm4FfnSg6DVH5bbZ7lgxqObQRX52c+NAX/8vnGYi6AR/vVqLTSbZ8OllZUoeCTLLb57e7sxrwC31s7OzsUsV4yYwLkuX7oUs2vl/Ibs8+LTNQETOCGBE0uW40sULbHprqvWK0u6qWgV6ZYVLUfc2foc/r8JOGsTPrz1N69zFOzUdBx65qS5CvJjtUTeamclb+vnz5/CH+82wtzsbGg0fgpbm1uBnANE+PGmCZKvNBoxuv3r06fAgzvGyMk61Zw6Ype/jpdNwARGk8CpJAsKRJs2HSDSXLqpaIXv6tWr8ae2lovK5rmZGP3tbm/G11CJEritAAAJDUlEQVSSF22baT22BJAy8Ey8BXgyTHChaZJUf6eunl4qTDWbcayta//4JeYVQLTkYiUp9tLyxZiZizG6SBxDs8TC/GIc1gUWjCTw3blzsf2W5CyM0+XJBExgvAh0ZSGJFqHws11RrBCyLNGmSWWIaGk/bTfRvYuf2Yxgy9X7PLkLoo39X+ltEBPZIFfyLLTyqJ62DTY/J8Q5NT0Vs1aRLpFodeXyT2Hx+wtxsENu7YUDCVcYdHBx8ULsYsbFL4QcL3zNzsUkLJyvJxMwgfEi0JVkQYVIkYyaBFiXzrMs0T579iw+R/4D7gzrJNrJ5nSMRr/u7sZsWxJtjGTJtUr/19g9iiTYE4cXt76Nc7t9O4nWt7d3wpvXv4aPHz/EJNqM40WPAZoAXq+thQ8fP4SFxcXYDnt+9nz4fWMj/Pv1r+H9n+/DyspK7FkAI08mYALjR6ASySLaXKx5VJuKFsyIlvy0nUTLT/7mNON7KUF3S+x0WG1FsNzJVa1Y048BciT72IUfluIwLWenmjEjFqkWyfe6dPFimJ2fP8rvSrMAuVqXly/Gcml5OczNzaeH9LwJmMAYEehasikrxMqDCJMpFS/zqWhZZttr1651FC1XwBoT9DTo/cQ50v3q7z//HLto8ZMf6bKeJNykDvz636/xBgWGikHKDJ3NczQvMNqAekD0/uz9iiZgAv0mUJlkkQ4PplSuWsd65lPRqvKlRKuN+1By3iTozieEyrDg+YRULdacipdNYDwJVCZZ4UM86nWAbJFNKl22k2gZTuXFixdxV+4M080HOpZLEzABExh2ApVLFiCKXmk20HwOKhWtctJatDklL5uACQw7gdoki1wV0QpSLtwff2wNyUJEa9GKkksTMIFRIlCLZAUobTrQurxEtDQnIFpSJTIR0bbyENTXayA/Dy+bgAmYQB0EapUsJ1xGtPQlJcp9+/ZtFC3S1cWwPPqtA4KPaQImYAJ1Eahdspx4GdGmTQevXr2K0a360Vq0db39Pq4JmEDdBHoiWSqRi5ZoNe9NINES0a6trcW6E9GynUVb90fBxzcBE6iDQM8ky8mnoqVrVypOzUu06+vrMZolg9Xly5ct2jrefR/TBEygdgI9lSy1SUWr2uX9aCVaItqnT5/GzejyxS2rkrH2dWkCJmACg0yg55IFBqLNxYo8U4FKtES0Fu0gf4R8biZgAu0I9EWyOiGkinDTCfny4LlUtE+ePImbOaJNaXneBExg0An0TbKKXPMbFlJgyLZb0R7s76eH7Hqe886j8K4P6gOYwAgT4DvD1KvvTXy5Acrd3DfJ6jNV1Ear5/TmFImWkXG5KKZttE9e8jxpEsNxo43nO7RZ5s3br+A4bV7CT5nAyBLg+6NfqQc1fo/OTPALmfv7v/2V3C+wfZcsFW8nWoGRaN+8eRMeP34c36ylpaVw/vz59qI9TL1I/lqGselm6nL3bl7a+5rA0BPQ96feiPYghAPk2t13vUrYAyFZKnScaNNIFdHyBr18+TKW169fjyw6i3YiNCYnQtVNB1W+ET6WCYwnAWRIc4LKbim0rufUmcj/pGc4MJLlxI8TbfqfT7fgKqEMouV5RMv+7aY4RE27DfycCZiACZQgwNh+ZaeBkiwnfZxoiyLaVLTsW0a0ZcF4OxMwAROogsDASZZKHSdaVRjhEtEyWbSi4tIETGAQCQykZAHVSbRsw+22TIiWJgNSJF65csWjw0Yq/mMCJjAIBAZWssApI1q10T5//jyKlv0s2kH4aPkcTMAEIDDQkuUEy4qWbRGtJotWJFyagAn0k8DASxY4iDbtYVAETG20Fm0RHa8zARPoF4GhkKzgcMEL4R43IdqFhYXw6NGjo01ot52fn2+739HGnjEBEzCBigkMjWQRLI92uQ7E5saNG+Hhw4cx+lUEbNGKjksTMIFeEhgayQpKmaYDtr158+Y3Ee309HTg0S4S1mu4NAETMIGqCAydZKl4UbMB6/KJiJamA0WzdPGyaHNKXjYBE6iTwFBKFiBqPkgjU4YRzyeJVusRrUdYEA2XJmACdRMYWskCBsGWbaNNL4ZZtHV/rHx8EzABERhqyVKJsm206cUw9rNo9RFwaQImcBoCaRNlOp8fa+glS4WKmg5U0bTyXAyj1wET7bQMN+6mA5FyaQImcFICck+7/UZCslSwbER769at8ODBgyMmRLRlRlg42sEzJmACJpAEd2kgVwRmZCRL5fRfJb0YllZazyuiTXsdENEet196DM+bgAmYAAQmJyejczrRGCnJUllEmV4M038ZSkmV7YoiWnfv6vRx8fMmUA2B9LtYzRFPfxQ5oswR0vNmP3xDqUfRMUZOslSSiqcw6NoFBNYJBuWdO3fC/fv3w+rqamTTbDaLGHldBwJFXec67FL4NP8cu53S972bY1VxLrx+FceZmZnppipH+/KZ73ba3Nzs9hBDvT/vxfb2dqwDkWyj0YgPybaocmcOqvpUFh29j+uolh580BlIkceXL1/C3t5e2NnZCbu7u7G8d+9ezHkQB1us+Zx5MwZlqkIAg1KX/DxGuW55XXu5jFSGZapLbQRjfL5u374db27iFzCBhoSrQE6cRjKSpXKqaAo6/U/OPMLjcffu3bC+vh4YtwfRsg8Q030FrOoyPaeqj1318XrBo+pz9vFMoBsC8gieQKJErwgV0VKyzHPajtfKv9MjG8mmYCVNxMlDMiWqVWTLOq2XaCUVlekxPW8CJjC6BCRKlYpSc8lKtjyvoE37iM7IRrKqICWVBoDmKfXfhxJwiBXJSsSI1XKNyPzHBMaagPyBKyRbRbGKZOWTXLCAGwvJUlGBQqL6r5OuY30awVqyY/29cuVN4IgAnpArVCJXeaSdYDnI2EiWygoWJRIVMOYVwbKdBXv0+fKMCZjAIYFUpsxrWSU+KZrGok22qOJIlUlCTUutL9rP60zABMaPgARKedzjOCpjK1kBkWxZRrSa0nmtc2kCJjCeBCRZap/OE8V2msZesjmgVLr5c142ARMYbwJlpJoTsmRzIl42ARMwgQoJdI51K3wxH8oETMAExo2AJTtu77jrawIm0FMClmxPcfvFTMAExo3A/wAPOlxjvBSrKwAAAABJRU5ErkJggg==;" parent="kQTfouu3JKNXjfHW2Bjd-1" vertex="1">
          <mxGeometry x="30" y="240" width="295" height="480" as="geometry" />
        </mxCell>
        <mxCell id="kQTfouu3JKNXjfHW2Bjd-4" value="&lt;p style=&quot;font-size: 18px&quot;&gt;&lt;/p&gt;&lt;div style=&quot;text-align: left&quot;&gt;&lt;span&gt;Premissas da jornada:&lt;/span&gt;&lt;/div&gt;&lt;span&gt;&lt;div style=&quot;text-align: left&quot;&gt;&lt;span&gt;- &lt;/span&gt;&lt;span&gt;12 milhões de acessos por dia&lt;/span&gt;&lt;/div&gt;&lt;/span&gt;&lt;span&gt;&lt;div style=&quot;text-align: left&quot;&gt;&lt;span&gt;- Uma n&lt;/span&gt;&lt;span&gt;ova instituição pode entrar na lista a qualquer momento.&lt;/span&gt;&lt;/div&gt;&lt;/span&gt;&lt;span&gt;&lt;div style=&quot;text-align: left&quot;&gt;&lt;span&gt;- Busca por pedaço do nome ou código do banco&lt;/span&gt;&lt;/div&gt;&lt;div style=&quot;text-align: left&quot;&gt;&lt;span&gt;- A lista de bancos possíveis chega em um arquivo as 2am em um sistema legado que possui endpoint HTTP (SOAP) com limitação em 10 tps.&lt;br&gt;- Organizar a lista pelos bancos mais usados&lt;/span&gt;&lt;/div&gt;&lt;/span&gt;&lt;p&gt;&lt;/p&gt;" style="text;html=1;strokeColor=none;fillColor=none;align=center;verticalAlign=middle;whiteSpace=wrap;rounded=0;fontSize=18;" parent="kQTfouu3JKNXjfHW2Bjd-1" vertex="1">
          <mxGeometry x="340" y="280" width="480" height="280" as="geometry" />
        </mxCell>
        <mxCell id="kQTfouu3JKNXjfHW2Bjd-5" value="Problemática: Em uma jornada de transferências, é necessário listar todas as instituições (bancos) passíveis de transferência para o nosso cliente selecionar o banco de destino da transferência" style="text;html=1;strokeColor=none;fillColor=none;align=center;verticalAlign=middle;whiteSpace=wrap;rounded=0;fontSize=18;fontStyle=1" parent="kQTfouu3JKNXjfHW2Bjd-1" vertex="1">
          <mxGeometry x="70" y="155" width="720" height="50" as="geometry" />
        </mxCell>
        <mxCell id="VFn4ck46AAMzR212qvMe-1" value="Objetivo principal: Oferecer a lista de instituições organizadas visando reduzir latência e gastos computacionais." style="text;html=1;strokeColor=none;fillColor=none;align=center;verticalAlign=middle;whiteSpace=wrap;rounded=0;fontSize=18;fontStyle=1" parent="kQTfouu3JKNXjfHW2Bjd-1" vertex="1">
          <mxGeometry x="350" y="584" width="410" height="70" as="geometry" />
        </mxCell>
      </root>
    </mxGraphModel>
  </diagram>
  <diagram id="O3eHDU9m-cQ3-_cNCUA4" name="Desenho">
    <mxGraphModel dx="1674" dy="764" grid="1" gridSize="10" guides="1" tooltips="1" connect="1" arrows="1" fold="1" page="1" pageScale="1" pageWidth="827" pageHeight="1169" math="0" shadow="0">
      <root>
        <mxCell id="0" />
        <mxCell id="1" parent="0" />
        <mxCell id="Yf6NNpswgFPIx5L68acl-9" value="On Premises" style="rounded=1;whiteSpace=wrap;html=1;labelPosition=center;verticalLabelPosition=top;align=center;verticalAlign=bottom;" parent="1" vertex="1">
          <mxGeometry x="680" y="250" width="540" height="320" as="geometry" />
        </mxCell>
        <mxCell id="Yf6NNpswgFPIx5L68acl-2" value="Conta Cloud" style="rounded=1;whiteSpace=wrap;html=1;labelPosition=center;verticalLabelPosition=top;align=center;verticalAlign=bottom;" parent="1" vertex="1">
          <mxGeometry x="130" y="250" width="540" height="320" as="geometry" />
        </mxCell>
        <mxCell id="LE64mxcVJCKAR3HvA3eb-2" style="edgeStyle=orthogonalEdgeStyle;rounded=0;orthogonalLoop=1;jettySize=auto;html=1;" edge="1" parent="1" source="Yf6NNpswgFPIx5L68acl-1" target="LE64mxcVJCKAR3HvA3eb-1">
          <mxGeometry relative="1" as="geometry">
            <Array as="points">
              <mxPoint x="85" y="308" />
              <mxPoint x="90" y="308" />
            </Array>
          </mxGeometry>
        </mxCell>
        <mxCell id="iMia5Q5ARVTioAnZyHOG-2" style="edgeStyle=orthogonalEdgeStyle;rounded=0;orthogonalLoop=1;jettySize=auto;html=1;" edge="1" parent="1" source="Yf6NNpswgFPIx5L68acl-1" target="iMia5Q5ARVTioAnZyHOG-1">
          <mxGeometry relative="1" as="geometry" />
        </mxCell>
        <mxCell id="Yf6NNpswgFPIx5L68acl-1" value="GET /bancos" style="rounded=0;whiteSpace=wrap;html=1;fillColor=#d5e8d4;strokeColor=#82b366;" parent="1" vertex="1">
          <mxGeometry x="20" y="395" width="130" height="20" as="geometry" />
        </mxCell>
        <mxCell id="Yf6NNpswgFPIx5L68acl-3" value="Informações Bancárias&lt;br&gt;(legado, 10 tps)" style="rounded=0;whiteSpace=wrap;html=1;fillColor=#f8cecc;strokeColor=#b85450;" parent="1" vertex="1">
          <mxGeometry x="950" y="280" width="120" height="60" as="geometry" />
        </mxCell>
        <mxCell id="Yf6NNpswgFPIx5L68acl-4" value="" style="shadow=0;dashed=0;html=1;strokeColor=none;labelPosition=center;verticalLabelPosition=bottom;verticalAlign=top;align=center;shape=mxgraph.mscae.cloud.service_endpoint2;fillColor=#0079D6;" parent="1" vertex="1">
          <mxGeometry x="918" y="298" width="32" height="12" as="geometry" />
        </mxCell>
        <mxCell id="Yf6NNpswgFPIx5L68acl-6" value="Endpoint SOAP" style="text;html=1;strokeColor=none;fillColor=none;align=center;verticalAlign=middle;whiteSpace=wrap;rounded=0;fontStyle=1;fontSize=8;" parent="1" vertex="1">
          <mxGeometry x="910" y="270" width="40" height="20" as="geometry" />
        </mxCell>
        <mxCell id="Yf6NNpswgFPIx5L68acl-7" value="- Restrição de 10 tps&lt;br&gt;- Recebe arquivos do mercado&lt;br&gt;com atualizações&lt;br&gt;- Base SQL Server 2014&lt;br&gt;" style="text;html=1;strokeColor=none;fillColor=none;align=left;verticalAlign=middle;whiteSpace=wrap;rounded=0;fontStyle=1;fontSize=8;" parent="1" vertex="1">
          <mxGeometry x="1080" y="284" width="130" height="56" as="geometry" />
        </mxCell>
        <mxCell id="Yf6NNpswgFPIx5L68acl-11" style="edgeStyle=orthogonalEdgeStyle;rounded=0;orthogonalLoop=1;jettySize=auto;html=1;fontSize=8;exitX=0.5;exitY=1;exitDx=0;exitDy=0;entryX=0;entryY=0.5;entryDx=0;entryDy=0;entryPerimeter=0;" parent="1" source="Yf6NNpswgFPIx5L68acl-3" target="Yf6NNpswgFPIx5L68acl-8" edge="1">
          <mxGeometry relative="1" as="geometry">
            <Array as="points">
              <mxPoint x="1010" y="380" />
            </Array>
          </mxGeometry>
        </mxCell>
        <mxCell id="Yf6NNpswgFPIx5L68acl-8" value="" style="verticalLabelPosition=bottom;html=1;verticalAlign=top;align=center;strokeColor=none;fillColor=#00BEF2;shape=mxgraph.azure.sql_database;fontSize=8;" parent="1" vertex="1">
          <mxGeometry x="1100" y="355" width="37.5" height="50" as="geometry" />
        </mxCell>
        <mxCell id="Yf6NNpswgFPIx5L68acl-10" value="direct connect" style="outlineConnect=0;dashed=0;verticalLabelPosition=bottom;verticalAlign=top;align=center;html=1;shape=mxgraph.aws3.direct_connect;fillColor=#F58536;gradientColor=none;fontSize=8;fontStyle=1" parent="1" vertex="1">
          <mxGeometry x="650" y="380" width="43" height="51" as="geometry" />
        </mxCell>
        <mxCell id="Yf6NNpswgFPIx5L68acl-12" value="API Restful" style="text;html=1;strokeColor=none;fillColor=none;align=center;verticalAlign=middle;whiteSpace=wrap;rounded=0;fontSize=8;fontStyle=1" parent="1" vertex="1">
          <mxGeometry x="20" y="375" width="60" height="20" as="geometry" />
        </mxCell>
        <mxCell id="wRnhN-b1cdvhoXuetALL-1" value="1.&amp;nbsp;Segurança&lt;br&gt;&lt;br&gt;" style="text;html=1;strokeColor=none;fillColor=none;align=left;verticalAlign=middle;whiteSpace=wrap;rounded=0;" parent="1" vertex="1">
          <mxGeometry x="480" y="580" width="210" height="100" as="geometry" />
        </mxCell>
        <UserObject label="https://thedevconf.com/tdc/2022/business/trilha-testes" link="https://thedevconf.com/tdc/2022/business/trilha-testes" id="XV-l_4MkyEJVXyxOcrgM-1">
          <mxCell style="text;html=1;" parent="1" vertex="1">
            <mxGeometry x="2480" y="1280" width="310" height="30" as="geometry" />
          </mxCell>
        </UserObject>
        <UserObject label="https://thedevconf.com/tdc/2022/business/trilha-testes" link="https://thedevconf.com/tdc/2022/business/trilha-testes" id="XV-l_4MkyEJVXyxOcrgM-2">
          <mxCell style="text;html=1;" parent="1" vertex="1">
            <mxGeometry x="2770" y="1280" width="310" height="30" as="geometry" />
          </mxCell>
        </UserObject>
        <mxCell id="LE64mxcVJCKAR3HvA3eb-1" value="Cloudfront" style="rounded=1;whiteSpace=wrap;html=1;" vertex="1" parent="1">
          <mxGeometry x="30" y="160" width="120" height="60" as="geometry" />
        </mxCell>
        <mxCell id="LE64mxcVJCKAR3HvA3eb-4" style="edgeStyle=orthogonalEdgeStyle;rounded=0;orthogonalLoop=1;jettySize=auto;html=1;" edge="1" parent="1" source="LE64mxcVJCKAR3HvA3eb-3" target="Yf6NNpswgFPIx5L68acl-3">
          <mxGeometry relative="1" as="geometry" />
        </mxCell>
        <mxCell id="LE64mxcVJCKAR3HvA3eb-6" style="edgeStyle=orthogonalEdgeStyle;rounded=0;orthogonalLoop=1;jettySize=auto;html=1;" edge="1" parent="1" source="LE64mxcVJCKAR3HvA3eb-3" target="LE64mxcVJCKAR3HvA3eb-5">
          <mxGeometry relative="1" as="geometry" />
        </mxCell>
        <mxCell id="N7LrRRsurbiHUJrRumNd-4" style="edgeStyle=orthogonalEdgeStyle;rounded=0;orthogonalLoop=1;jettySize=auto;html=1;entryX=0.883;entryY=0.48;entryDx=0;entryDy=0;entryPerimeter=0;" edge="1" parent="1" source="LE64mxcVJCKAR3HvA3eb-3" target="N7LrRRsurbiHUJrRumNd-3">
          <mxGeometry relative="1" as="geometry" />
        </mxCell>
        <mxCell id="LE64mxcVJCKAR3HvA3eb-3" value="service-recepcao-batch" style="rounded=1;whiteSpace=wrap;html=1;" vertex="1" parent="1">
          <mxGeometry x="440" y="280" width="90" height="46" as="geometry" />
        </mxCell>
        <mxCell id="N7LrRRsurbiHUJrRumNd-5" style="edgeStyle=orthogonalEdgeStyle;rounded=0;orthogonalLoop=1;jettySize=auto;html=1;" edge="1" parent="1" source="LE64mxcVJCKAR3HvA3eb-5" target="N7LrRRsurbiHUJrRumNd-1">
          <mxGeometry relative="1" as="geometry">
            <Array as="points">
              <mxPoint x="590" y="435" />
              <mxPoint x="510" y="435" />
            </Array>
          </mxGeometry>
        </mxCell>
        <mxCell id="LE64mxcVJCKAR3HvA3eb-5" value="topic-kafka" style="rounded=1;whiteSpace=wrap;html=1;" vertex="1" parent="1">
          <mxGeometry x="540" y="355" width="100" height="35" as="geometry" />
        </mxCell>
        <mxCell id="N7LrRRsurbiHUJrRumNd-6" style="edgeStyle=orthogonalEdgeStyle;rounded=0;orthogonalLoop=1;jettySize=auto;html=1;" edge="1" parent="1" source="N7LrRRsurbiHUJrRumNd-1" target="LE64mxcVJCKAR3HvA3eb-3">
          <mxGeometry relative="1" as="geometry" />
        </mxCell>
        <mxCell id="N7LrRRsurbiHUJrRumNd-1" value="outros-services" style="rounded=1;whiteSpace=wrap;html=1;" vertex="1" parent="1">
          <mxGeometry x="430" y="480" width="110" height="50" as="geometry" />
        </mxCell>
        <mxCell id="N7LrRRsurbiHUJrRumNd-3" value="mongoDB / redis" style="shape=cylinder3;whiteSpace=wrap;html=1;boundedLbl=1;backgroundOutline=1;size=15;" vertex="1" parent="1">
          <mxGeometry x="300" y="269" width="70" height="70" as="geometry" />
        </mxCell>
        <mxCell id="iMia5Q5ARVTioAnZyHOG-5" style="edgeStyle=orthogonalEdgeStyle;rounded=0;orthogonalLoop=1;jettySize=auto;html=1;" edge="1" parent="1" source="iMia5Q5ARVTioAnZyHOG-1" target="iMia5Q5ARVTioAnZyHOG-4">
          <mxGeometry relative="1" as="geometry" />
        </mxCell>
        <mxCell id="iMia5Q5ARVTioAnZyHOG-7" value="busca/atualizaca" style="edgeStyle=orthogonalEdgeStyle;rounded=0;orthogonalLoop=1;jettySize=auto;html=1;entryX=0;entryY=0.5;entryDx=0;entryDy=0;entryPerimeter=0;" edge="1" parent="1" source="iMia5Q5ARVTioAnZyHOG-1" target="N7LrRRsurbiHUJrRumNd-3">
          <mxGeometry relative="1" as="geometry" />
        </mxCell>
        <mxCell id="iMia5Q5ARVTioAnZyHOG-8" style="edgeStyle=orthogonalEdgeStyle;rounded=0;orthogonalLoop=1;jettySize=auto;html=1;entryX=0;entryY=0.5;entryDx=0;entryDy=0;" edge="1" parent="1" source="iMia5Q5ARVTioAnZyHOG-1" target="LE64mxcVJCKAR3HvA3eb-5">
          <mxGeometry relative="1" as="geometry" />
        </mxCell>
        <mxCell id="iMia5Q5ARVTioAnZyHOG-1" value="service-bancos" style="rounded=1;whiteSpace=wrap;html=1;" vertex="1" parent="1">
          <mxGeometry x="200" y="375" width="120" height="60" as="geometry" />
        </mxCell>
        <mxCell id="iMia5Q5ARVTioAnZyHOG-4" value="redis" style="shape=cylinder3;whiteSpace=wrap;html=1;boundedLbl=1;backgroundOutline=1;size=15;" vertex="1" parent="1">
          <mxGeometry x="225" y="470" width="70" height="60" as="geometry" />
        </mxCell>
      </root>
    </mxGraphModel>
  </diagram>
</mxfile>
